<svg width="460" height="87" viewBox="0 0 460 87" fill="none" xmlns="http://www.w3.org/2000/svg">
<g clip-path="url(#clip0_719_13289)">
<rect width="460" height="87" rx="36" fill="#5200FF"/>
<path d="M148.026 31.5634C151.319 29.6942 155.376 32.204 155.173 35.9847L153.759 62.4003C153.71 63.315 153.924 64.2245 154.376 65.0211L167.437 88.0258C169.306 91.3183 166.796 95.3756 163.015 95.1732L136.6 93.7586C135.685 93.7096 134.776 93.9239 133.979 94.3761L110.974 107.436C107.682 109.306 103.624 106.796 103.827 103.015L105.242 76.5995C105.291 75.6848 105.076 74.7753 104.624 73.9787L91.5637 50.974C89.6944 47.6815 92.2043 43.6242 95.985 43.8266L122.401 45.2412C123.315 45.2902 124.225 45.0759 125.021 44.6237L148.026 31.5634Z" fill="#FF32F7"/>
<path fill-rule="evenodd" clip-rule="evenodd" d="M377.543 28.0801C395.355 9.52425 394.752 -19.9578 376.196 -37.77C357.64 -55.5822 328.158 -54.9794 310.346 -36.4236C292.534 -17.8678 293.137 11.6143 311.693 29.4265C330.248 47.2387 359.73 46.6359 377.543 28.0801ZM360.743 11.9542C369.65 2.67625 369.348 -12.0648 360.07 -20.9709C350.792 -29.877 336.051 -29.5756 327.145 -20.2977C318.239 -11.0198 318.541 3.72128 327.818 12.6274C337.096 21.5335 351.837 21.2321 360.743 11.9542Z" fill="#32DAFF"/>
<path d="M463.38 44.5441C467.362 44.2395 470.402 48.0194 469.249 51.8434L460.542 95.9411C458.501 102.713 452.499 107.538 445.447 108.078L400.508 107.112C396.526 107.417 393.487 103.637 394.64 99.8131L403.347 55.7154C405.388 48.9439 411.39 44.1181 418.441 43.5787L463.38 44.5441Z" fill="#32FF46"/>
<circle cx="21.7559" cy="17.8719" r="46.5728" transform="rotate(-46.1714 21.7559 17.8719)" fill="#FFD232"/>
<g clip-path="url(#clip1_719_13289)">
<rect x="208" y="19" width="44" height="44" rx="9.53333" fill="white"/>
<path fill-rule="evenodd" clip-rule="evenodd" d="M264.467 18.4526C264.467 25.0339 259.131 30.3692 252.55 30.3692C245.968 30.3692 240.633 25.0339 240.633 18.4526C240.633 11.8712 245.968 6.53589 252.55 6.53589C259.131 6.53589 264.467 11.8712 264.467 18.4526ZM228.716 30.3692C235.297 30.3692 240.633 25.034 240.633 18.4526C240.633 11.8712 235.297 6.5359 228.716 6.5359C222.135 6.5359 216.799 11.8712 216.799 18.4526C216.799 25.034 222.135 30.3692 228.716 30.3692ZM228.716 54.2039C235.298 54.2039 240.633 48.8687 240.633 42.2873C240.633 35.7059 235.298 30.3706 228.716 30.3706C222.135 30.3706 216.799 35.7059 216.799 42.2873C216.799 48.8687 222.135 54.2039 228.716 54.2039ZM252.55 54.2039C259.131 54.2039 264.467 48.8687 264.467 42.2873C264.467 35.7059 259.131 30.3706 252.55 30.3706C245.968 30.3706 240.633 35.7059 240.633 42.2873C240.633 48.8687 245.968 54.2039 252.55 54.2039Z" fill="black"/>
</g>
</g>
<defs>
<clipPath id="clip0_719_13289">
<rect width="460" height="87" rx="36" fill="white"/>
</clipPath>
<clipPath id="clip1_719_13289">
<rect x="208" y="19" width="44" height="44" rx="9.53333" fill="white"/>
</clipPath>
</defs>
</svg>
