<svg width="460" height="240" viewBox="0 0 460 240" fill="none" xmlns="http://www.w3.org/2000/svg">
<g clip-path="url(#clip0_719_13436)">
<path d="M424 0H36C16.1177 0 0 16.1177 0 36V204C0 223.882 16.1177 240 36 240H424C443.882 240 460 223.882 460 204V36C460 16.1177 443.882 0 424 0Z" fill="#5200FF"/>
<path d="M61.431 33.8193C62.7578 31.3933 66.2422 31.3933 67.569 33.8193L76.8395 50.7698C77.1605 51.3567 77.6431 51.8393 78.23 52.1603L95.1805 61.4308C97.6065 62.7577 97.6065 66.242 95.1805 67.5688L78.23 76.8393C77.6431 77.1603 77.1605 77.6429 76.8395 78.2298L67.569 95.1803C66.2422 97.6063 62.7578 97.6063 61.431 95.1803L52.1605 78.2298C51.8395 77.6429 51.3569 77.1603 50.77 76.8393L33.8195 67.5688C31.3935 66.242 31.3935 62.7577 33.8195 61.4308L50.77 52.1603C51.3569 51.8393 51.8395 51.3567 52.1605 50.7698L61.431 33.8193Z" fill="#FF32F7"/>
<path d="M395 97C413.225 97 428 82.4493 428 64.5C428 46.5507 413.225 32 395 32C376.775 32 362 46.5507 362 64.5C362 82.4493 376.775 97 395 97Z" fill="#FFD232"/>
<path d="M391.682 144.724C393.282 142.425 396.718 142.425 398.318 144.724L418.804 168.742C421.637 172.813 421.637 178.187 418.804 182.258L398.318 206.276C396.718 208.575 393.282 208.575 391.682 206.276L371.196 182.258C368.363 178.187 368.363 172.813 371.196 168.742L391.682 144.724Z" fill="#32FF46"/>
<path fill-rule="evenodd" clip-rule="evenodd" d="M64.5 208C82.4493 208 97 193.449 97 175.5C97 157.551 82.4493 143 64.5 143C46.5507 143 32 157.551 32 175.5C32 193.449 46.5507 208 64.5 208ZM64.5 191.75C73.4746 191.75 80.75 184.475 80.75 175.5C80.75 166.525 73.4746 159.25 64.5 159.25C55.5254 159.25 48.25 166.525 48.25 175.5C48.25 184.475 55.5254 191.75 64.5 191.75Z" fill="#32DAFF"/>
<path d="M358 177.5C359.105 177.5 360 176.605 360 175.5C360 174.395 359.105 173.5 358 173.5V177.5ZM99.5858 174.086C98.8047 174.867 98.8047 176.133 99.5858 176.914L112.314 189.642C113.095 190.423 114.361 190.423 115.142 189.642C115.923 188.861 115.923 187.595 115.142 186.814L103.828 175.5L115.142 164.186C115.923 163.405 115.923 162.139 115.142 161.358C114.361 160.577 113.095 160.577 112.314 161.358L99.5858 174.086ZM358 173.5H101V177.5H358V173.5Z" fill="#32FF46"/>
<path d="M358 177.5C359.105 177.5 360 176.605 360 175.5C360 174.395 359.105 173.5 358 173.5V177.5ZM65.9142 99.5858C65.1332 98.8047 63.8668 98.8047 63.0858 99.5858L50.3579 112.314C49.5768 113.095 49.5768 114.361 50.3579 115.142C51.1389 115.923 52.4052 115.923 53.1863 115.142L64.5 103.828L75.8137 115.142C76.5948 115.923 77.8611 115.923 78.6421 115.142C79.4232 114.361 79.4232 113.095 78.6421 112.314L65.9142 99.5858ZM163 155.25C163 154.145 162.105 153.25 161 153.25C159.895 153.25 159 154.145 159 155.25H163ZM358 173.5H181.25V177.5H358V173.5ZM140.75 133H88.5V137H140.75V133ZM66.5 111V101H62.5V111H66.5ZM88.5 133C76.3497 133 66.5 123.15 66.5 111H62.5C62.5 125.359 74.1406 137 88.5 137V133ZM163 155.25C163 142.962 153.038 133 140.75 133V137C150.829 137 159 145.171 159 155.25H163ZM181.25 173.5C171.171 173.5 163 165.329 163 155.25H159C159 167.538 168.962 177.5 181.25 177.5V173.5Z" fill="#32FF46"/>
<path d="M377 104C377 102.896 376.105 102 375 102C373.895 102 373 102.896 373 104H377ZM373.586 140.154C374.367 140.935 375.633 140.935 376.414 140.154L389.142 127.427C389.923 126.645 389.923 125.379 389.142 124.598C388.361 123.817 387.095 123.817 386.314 124.598L375 135.912L363.686 124.598C362.905 123.817 361.639 123.817 360.858 124.598C360.077 125.379 360.077 126.645 360.858 127.427L373.586 140.154ZM373 104V138.74H377V104H373Z" fill="#FFD232"/>
<path d="M417.414 102.586C416.633 101.805 415.367 101.805 414.586 102.586L401.858 115.314C401.077 116.095 401.077 117.361 401.858 118.142C402.639 118.923 403.905 118.923 404.686 118.142L416 106.829L427.314 118.142C428.095 118.923 429.361 118.923 430.142 118.142C430.923 117.361 430.923 116.095 430.142 115.314L417.414 102.586ZM414 138.74C414 139.845 414.895 140.74 416 140.74C417.105 140.74 418 139.845 418 138.74H414ZM414 104V138.74H418V104H414Z" fill="#32FF46"/>
<path d="M101 62.5C99.8954 62.5 99 63.3954 99 64.5C99 65.6046 99.8954 66.5 101 66.5V62.5ZM359.414 65.9142C360.195 65.1332 360.195 63.8668 359.414 63.0858L346.686 50.3579C345.905 49.5768 344.639 49.5768 343.858 50.3579C343.077 51.1389 343.077 52.4052 343.858 53.1863L355.172 64.5L343.858 75.8137C343.077 76.5948 343.077 77.8611 343.858 78.6421C344.639 79.4232 345.905 79.4232 346.686 78.6421L359.414 65.9142ZM303.5 121C304.605 121 305.5 120.105 305.5 119C305.5 117.895 304.605 117 303.5 117V121ZM147 47.25C147 46.1454 146.105 45.25 145 45.25C143.895 45.25 143 46.1454 143 47.25H147ZM101 66.5H127.75V62.5H101V66.5ZM162.25 32H269V28H162.25V32ZM291 54V108.5H295V54H291ZM316 108.5V88.5H312V108.5H316ZM338 66.5H358V62.5H338V66.5ZM316 88.5C316 76.3497 325.85 66.5 338 66.5V62.5C323.641 62.5 312 74.1406 312 88.5H316ZM303.5 121C310.404 121 316 115.404 316 108.5H312C312 113.194 308.194 117 303.5 117V121ZM291 108.5C291 115.404 296.596 121 303.5 121V117C298.806 117 295 113.194 295 108.5H291ZM269 32C281.15 32 291 41.8497 291 54H295C295 39.6406 283.359 28 269 28V32ZM147 47.25C147 38.8277 153.828 32 162.25 32V28C151.619 28 143 36.6185 143 47.25H147ZM127.75 66.5C138.381 66.5 147 57.8815 147 47.25H143C143 55.6723 136.172 62.5 127.75 62.5V66.5Z" fill="#FF32F7"/>
<path d="M101 62.5C99.8954 62.5 99 63.3954 99 64.5C99 65.6046 99.8954 66.5 101 66.5V62.5ZM366.415 176.915C367.196 176.134 367.196 174.867 366.415 174.086L353.687 161.358C352.906 160.577 351.64 160.577 350.859 161.358C350.078 162.139 350.078 163.406 350.859 164.187L362.172 175.5L350.859 186.814C350.078 187.595 350.078 188.862 350.859 189.643C351.64 190.424 352.906 190.424 353.687 189.643L366.415 176.915ZM101 66.5H207V62.5H101V66.5ZM229 88.5V151.5H233V88.5H229ZM255 177.5H365.001V173.5H255V177.5ZM229 151.5C229 165.86 240.641 177.5 255 177.5V173.5C242.85 173.5 233 163.651 233 151.5H229ZM207 66.5C219.151 66.5 229 76.3497 229 88.5H233C233 74.1406 221.36 62.5 207 62.5V66.5Z" fill="#FF32F7"/>
</g>
<defs>
<clipPath id="clip0_719_13436">
<rect width="460" height="240" fill="white"/>
</clipPath>
</defs>
</svg>
