<svg width="460" height="88" viewBox="0 0 460 88" fill="none" xmlns="http://www.w3.org/2000/svg">
<rect width="460" height="88" rx="36" fill="#3246FF"/>
<path d="M188.533 51.2461C187.576 51.2461 186.729 51.0638 185.99 50.6992C185.261 50.3255 184.691 49.8105 184.281 49.1543C183.88 48.4889 183.68 47.7279 183.68 46.8711V46.8438C183.68 45.5586 184.158 44.5423 185.115 43.7949C186.081 43.0384 187.439 42.61 189.189 42.5098L194.727 42.168V44.4238L189.668 44.7383C188.829 44.793 188.187 44.9935 187.74 45.3398C187.294 45.6862 187.07 46.1465 187.07 46.7207V46.7344C187.07 47.3268 187.294 47.7962 187.74 48.1426C188.196 48.4798 188.798 48.6484 189.545 48.6484C190.201 48.6484 190.785 48.5163 191.295 48.252C191.814 47.9876 192.225 47.6276 192.525 47.1719C192.826 46.7161 192.977 46.2012 192.977 45.627V41.2793C192.977 40.5501 192.744 39.9759 192.279 39.5566C191.824 39.1283 191.163 38.9141 190.297 38.9141C189.495 38.9141 188.852 39.0872 188.369 39.4336C187.886 39.7708 187.585 40.2083 187.467 40.7461L187.439 40.8691H184.295L184.309 40.7051C184.382 39.8483 184.669 39.0827 185.17 38.4082C185.671 37.7246 186.364 37.1868 187.248 36.7949C188.141 36.403 189.199 36.207 190.42 36.207C191.632 36.207 192.68 36.4076 193.564 36.8086C194.458 37.2096 195.146 37.7702 195.629 38.4902C196.121 39.2103 196.367 40.0579 196.367 41.0332V51H192.977V48.7715H192.895C192.621 49.2728 192.266 49.7103 191.828 50.084C191.391 50.4577 190.889 50.7448 190.324 50.9453C189.768 51.1458 189.171 51.2461 188.533 51.2461ZM204.516 51.2871C203.294 51.2871 202.232 50.9863 201.33 50.3848C200.437 49.7741 199.744 48.9036 199.252 47.7734C198.769 46.6432 198.527 45.3034 198.527 43.7539V43.7402C198.527 42.1816 198.773 40.8418 199.266 39.7207C199.758 38.5905 200.451 37.7246 201.344 37.123C202.237 36.5124 203.29 36.207 204.502 36.207C205.532 36.207 206.439 36.4577 207.223 36.959C208.016 37.4512 208.617 38.1302 209.027 38.9961H209.109V31.2715H212.5V51H209.109V48.5391H209.027C208.617 49.3958 208.025 50.0703 207.25 50.5625C206.475 51.0456 205.564 51.2871 204.516 51.2871ZM205.541 48.4297C206.243 48.4297 206.863 48.2383 207.4 47.8555C207.938 47.4727 208.357 46.9303 208.658 46.2285C208.959 45.5267 209.109 44.7018 209.109 43.7539V43.7402C209.109 42.7923 208.954 41.972 208.645 41.2793C208.344 40.5775 207.924 40.0352 207.387 39.6523C206.858 39.2695 206.243 39.0781 205.541 39.0781C204.812 39.0781 204.178 39.2695 203.641 39.6523C203.112 40.026 202.702 40.5592 202.41 41.252C202.128 41.9447 201.986 42.7741 201.986 43.7402V43.7539C201.986 44.7109 202.128 45.5404 202.41 46.2422C202.702 46.944 203.112 47.4863 203.641 47.8691C204.178 48.2428 204.812 48.4297 205.541 48.4297ZM220.758 51.2871C219.536 51.2871 218.475 50.9863 217.572 50.3848C216.679 49.7741 215.986 48.9036 215.494 47.7734C215.011 46.6432 214.77 45.3034 214.77 43.7539V43.7402C214.77 42.1816 215.016 40.8418 215.508 39.7207C216 38.5905 216.693 37.7246 217.586 37.123C218.479 36.5124 219.532 36.207 220.744 36.207C221.774 36.207 222.681 36.4577 223.465 36.959C224.258 37.4512 224.859 38.1302 225.27 38.9961H225.352V31.2715H228.742V51H225.352V48.5391H225.27C224.859 49.3958 224.267 50.0703 223.492 50.5625C222.717 51.0456 221.806 51.2871 220.758 51.2871ZM221.783 48.4297C222.485 48.4297 223.105 48.2383 223.643 47.8555C224.18 47.4727 224.6 46.9303 224.9 46.2285C225.201 45.5267 225.352 44.7018 225.352 43.7539V43.7402C225.352 42.7923 225.197 41.972 224.887 41.2793C224.586 40.5775 224.167 40.0352 223.629 39.6523C223.1 39.2695 222.485 39.0781 221.783 39.0781C221.054 39.0781 220.421 39.2695 219.883 39.6523C219.354 40.026 218.944 40.5592 218.652 41.252C218.37 41.9447 218.229 42.7741 218.229 43.7402V43.7539C218.229 44.7109 218.37 45.5404 218.652 46.2422C218.944 46.944 219.354 47.4863 219.883 47.8691C220.421 48.2428 221.054 48.4297 221.783 48.4297ZM245.326 51.2871C244.287 51.2871 243.38 51.0456 242.605 50.5625C241.831 50.0703 241.234 49.3958 240.814 48.5391H240.746V51H237.342V31.2715H240.746V38.9961H240.814C241.234 38.1302 241.835 37.4512 242.619 36.959C243.412 36.4577 244.324 36.207 245.354 36.207C246.566 36.207 247.618 36.5124 248.512 37.123C249.405 37.7246 250.098 38.5905 250.59 39.7207C251.082 40.8418 251.328 42.1816 251.328 43.7402V43.7539C251.328 45.3034 251.082 46.6432 250.59 47.7734C250.107 48.9036 249.414 49.7741 248.512 50.3848C247.618 50.9863 246.557 51.2871 245.326 51.2871ZM244.314 48.4297C245.044 48.4297 245.673 48.2428 246.201 47.8691C246.739 47.4863 247.149 46.944 247.432 46.2422C247.714 45.5404 247.855 44.7109 247.855 43.7539V43.7402C247.855 42.7741 247.71 41.9447 247.418 41.252C247.135 40.5592 246.73 40.026 246.201 39.6523C245.673 39.2695 245.044 39.0781 244.314 39.0781C243.613 39.0781 242.993 39.2695 242.455 39.6523C241.926 40.0352 241.507 40.5775 241.197 41.2793C240.887 41.972 240.732 42.7923 240.732 43.7402V43.7539C240.732 44.7018 240.883 45.5267 241.184 46.2285C241.493 46.9303 241.917 47.4727 242.455 47.8555C242.993 48.2383 243.613 48.4297 244.314 48.4297ZM259.928 51.2871C258.506 51.2871 257.271 50.9863 256.223 50.3848C255.174 49.7741 254.359 48.9082 253.775 47.7871C253.201 46.6569 252.914 45.3125 252.914 43.7539V43.7266C252.914 42.1771 253.206 40.8418 253.789 39.7207C254.372 38.5905 255.188 37.7246 256.236 37.123C257.285 36.5124 258.51 36.207 259.914 36.207C261.327 36.207 262.557 36.5124 263.605 37.123C264.663 37.7246 265.483 38.5859 266.066 39.707C266.65 40.8281 266.941 42.168 266.941 43.7266V43.7539C266.941 45.3216 266.65 46.6706 266.066 47.8008C265.492 48.9219 264.681 49.7832 263.633 50.3848C262.585 50.9863 261.35 51.2871 259.928 51.2871ZM259.941 48.5391C260.661 48.5391 261.286 48.3522 261.814 47.9785C262.343 47.6048 262.749 47.0625 263.031 46.3516C263.323 45.6315 263.469 44.7656 263.469 43.7539V43.7266C263.469 42.724 263.323 41.8672 263.031 41.1562C262.74 40.4453 262.325 39.903 261.787 39.5293C261.258 39.1556 260.634 38.9688 259.914 38.9688C259.212 38.9688 258.592 39.1556 258.055 39.5293C257.526 39.903 257.111 40.4453 256.811 41.1562C256.519 41.8672 256.373 42.724 256.373 43.7266V43.7539C256.373 44.7656 256.519 45.6315 256.811 46.3516C257.111 47.0625 257.526 47.6048 258.055 47.9785C258.592 48.3522 259.221 48.5391 259.941 48.5391ZM274.502 51.2871C272.998 51.2871 271.877 50.959 271.139 50.3027C270.41 49.6465 270.045 48.571 270.045 47.0762V39.1328H267.994V36.5078H270.045V32.8301H273.504V36.5078H276.197V39.1328H273.504V46.8027C273.504 47.5046 273.659 47.9922 273.969 48.2656C274.288 48.5299 274.753 48.6621 275.363 48.6621C275.536 48.6621 275.687 48.6576 275.814 48.6484C275.951 48.6302 276.079 48.6165 276.197 48.6074V51.1641C275.997 51.1914 275.751 51.2188 275.459 51.2461C275.176 51.2734 274.857 51.2871 274.502 51.2871Z" fill="white"/>
</svg>
