<svg width="460" height="87" viewBox="0 0 460 87" fill="none" xmlns="http://www.w3.org/2000/svg">
<g clip-path="url(#clip0_719_13254)">
<rect width="460" height="87" rx="36" fill="#5200FF"/>
<path d="M124.026 63.5634C127.319 61.6942 131.376 64.204 131.173 67.9847L129.759 94.4003C129.71 95.315 129.924 96.2245 130.376 97.0211L143.437 120.026C145.306 123.318 142.796 127.376 139.015 127.173L112.6 125.759C111.685 125.71 110.776 125.924 109.979 126.376L86.9743 139.436C83.6818 141.306 79.6244 138.796 79.8269 135.015L81.2415 108.599C81.2905 107.685 81.0762 106.775 80.6239 105.979L67.5637 82.974C65.6944 79.6815 68.2043 75.6242 71.985 75.8266L98.4006 77.2412C99.3153 77.2902 100.225 77.0759 101.021 76.6237L124.026 63.5634Z" fill="#FF32F7"/>
<path fill-rule="evenodd" clip-rule="evenodd" d="M377.543 -3.91994C395.355 -22.4757 394.752 -51.9578 376.196 -69.77C357.64 -87.5822 328.158 -86.9794 310.346 -68.4236C292.534 -49.8678 293.137 -20.3857 311.693 -2.57349C330.248 15.2387 359.73 14.6359 377.543 -3.91994ZM360.743 -20.0458C369.65 -29.3237 369.348 -44.0648 360.07 -52.9709C350.792 -61.877 336.051 -61.5756 327.145 -52.2977C318.239 -43.0198 318.541 -28.2787 327.818 -19.3726C337.096 -10.4665 351.837 -10.7679 360.743 -20.0458Z" fill="#32DAFF"/>
<path d="M487.38 68.5441C491.362 68.2395 494.402 72.0194 493.249 75.8434L484.542 119.941C482.501 126.713 476.499 131.538 469.447 132.078L424.508 131.112C420.526 131.417 417.487 127.637 418.64 123.813L427.347 79.7154C429.388 72.9439 435.39 68.1181 442.441 67.5787L487.38 68.5441Z" fill="#32FF46"/>
<circle cx="-10.2441" cy="-6.12806" r="46.5728" transform="rotate(-46.1714 -10.2441 -6.12806)" fill="#FFD232"/>
<g clip-path="url(#clip1_719_13254)">
<rect x="208" y="19" width="44" height="44" rx="9.53333" fill="white"/>
<path fill-rule="evenodd" clip-rule="evenodd" d="M264.467 18.4526C264.467 25.0339 259.131 30.3692 252.55 30.3692C245.968 30.3692 240.633 25.0339 240.633 18.4526C240.633 11.8712 245.968 6.53589 252.55 6.53589C259.131 6.53589 264.467 11.8712 264.467 18.4526ZM228.716 30.3692C235.297 30.3692 240.633 25.034 240.633 18.4526C240.633 11.8712 235.297 6.5359 228.716 6.5359C222.135 6.5359 216.799 11.8712 216.799 18.4526C216.799 25.034 222.135 30.3692 228.716 30.3692ZM228.716 54.2039C235.298 54.2039 240.633 48.8687 240.633 42.2873C240.633 35.7059 235.298 30.3706 228.716 30.3706C222.135 30.3706 216.799 35.7059 216.799 42.2873C216.799 48.8687 222.135 54.2039 228.716 54.2039ZM252.55 54.2039C259.131 54.2039 264.467 48.8687 264.467 42.2873C264.467 35.7059 259.131 30.3706 252.55 30.3706C245.968 30.3706 240.633 35.7059 240.633 42.2873C240.633 48.8687 245.968 54.2039 252.55 54.2039Z" fill="black"/>
</g>
</g>
<defs>
<clipPath id="clip0_719_13254">
<rect width="460" height="87" rx="36" fill="white"/>
</clipPath>
<clipPath id="clip1_719_13254">
<rect x="208" y="19" width="44" height="44" rx="9.53333" fill="white"/>
</clipPath>
</defs>
</svg>
