<svg width="159" height="82" viewBox="0 0 159 82" fill="none" xmlns="http://www.w3.org/2000/svg">
<path d="M159 36C159 16.1177 142.882 0 123 0H36C16.1178 0 0 16.1177 0 36V46C0 65.8822 16.1178 82 36 82H147C153.627 82 159 76.6274 159 70V36Z" fill="#2C2C2C"/>
<path d="M40.6172 31.2715L35.4492 55.7852H32.373L37.541 31.2715H40.6172ZM46.2773 51.2461C45.3203 51.2461 44.4727 51.0638 43.7344 50.6992C43.0052 50.3255 42.4355 49.8105 42.0254 49.1543C41.6243 48.4889 41.4238 47.7279 41.4238 46.8711V46.8438C41.4238 45.5586 41.9023 44.5423 42.8594 43.7949C43.8255 43.0384 45.1836 42.61 46.9336 42.5098L52.4707 42.168V44.4238L47.4121 44.7383C46.5736 44.793 45.931 44.9935 45.4844 45.3398C45.0378 45.6862 44.8145 46.1465 44.8145 46.7207V46.7344C44.8145 47.3268 45.0378 47.7962 45.4844 48.1426C45.9401 48.4798 46.5417 48.6484 47.2891 48.6484C47.9453 48.6484 48.5286 48.5163 49.0391 48.252C49.5586 47.9876 49.9688 47.6276 50.2695 47.1719C50.5703 46.7161 50.7207 46.2012 50.7207 45.627V41.2793C50.7207 40.5501 50.4883 39.9759 50.0234 39.5566C49.5677 39.1283 48.9069 38.9141 48.041 38.9141C47.2389 38.9141 46.5964 39.0872 46.1133 39.4336C45.6302 39.7708 45.3294 40.2083 45.2109 40.7461L45.1836 40.8691H42.0391L42.0527 40.7051C42.1257 39.8483 42.4128 39.0827 42.9141 38.4082C43.4154 37.7246 44.1081 37.1868 44.9922 36.7949C45.8854 36.403 46.9427 36.207 48.1641 36.207C49.3763 36.207 50.4245 36.4076 51.3086 36.8086C52.2018 37.2096 52.89 37.7702 53.373 38.4902C53.8652 39.2103 54.1113 40.0579 54.1113 41.0332V51H50.7207V48.7715H50.6387C50.3652 49.2728 50.0098 49.7103 49.5723 50.084C49.1348 50.4577 48.6335 50.7448 48.0684 50.9453C47.5124 51.1458 46.9154 51.2461 46.2773 51.2461ZM62.2598 51.2871C61.0384 51.2871 59.9766 50.9863 59.0742 50.3848C58.181 49.7741 57.4883 48.9036 56.9961 47.7734C56.513 46.6432 56.2715 45.3034 56.2715 43.7539V43.7402C56.2715 42.1816 56.5176 40.8418 57.0098 39.7207C57.502 38.5905 58.1947 37.7246 59.0879 37.123C59.9811 36.5124 61.0339 36.207 62.2461 36.207C63.276 36.207 64.1829 36.4577 64.9668 36.959C65.7598 37.4512 66.3613 38.1302 66.7715 38.9961H66.8535V31.2715H70.2441V51H66.8535V48.5391H66.7715C66.3613 49.3958 65.7689 50.0703 64.9941 50.5625C64.2194 51.0456 63.3079 51.2871 62.2598 51.2871ZM63.2852 48.4297C63.987 48.4297 64.6068 48.2383 65.1445 47.8555C65.6823 47.4727 66.1016 46.9303 66.4023 46.2285C66.7031 45.5267 66.8535 44.7018 66.8535 43.7539V43.7402C66.8535 42.7923 66.6986 41.972 66.3887 41.2793C66.0879 40.5775 65.6686 40.0352 65.1309 39.6523C64.6022 39.2695 63.987 39.0781 63.2852 39.0781C62.556 39.0781 61.9225 39.2695 61.3848 39.6523C60.8561 40.026 60.446 40.5592 60.1543 41.252C59.8717 41.9447 59.7305 42.7741 59.7305 43.7402V43.7539C59.7305 44.7109 59.8717 45.5404 60.1543 46.2422C60.446 46.944 60.8561 47.4863 61.3848 47.8691C61.9225 48.2428 62.556 48.4297 63.2852 48.4297ZM78.502 51.2871C77.2806 51.2871 76.2188 50.9863 75.3164 50.3848C74.4232 49.7741 73.7305 48.9036 73.2383 47.7734C72.7552 46.6432 72.5137 45.3034 72.5137 43.7539V43.7402C72.5137 42.1816 72.7598 40.8418 73.252 39.7207C73.7441 38.5905 74.4368 37.7246 75.3301 37.123C76.2233 36.5124 77.276 36.207 78.4883 36.207C79.5182 36.207 80.4251 36.4577 81.209 36.959C82.002 37.4512 82.6035 38.1302 83.0137 38.9961H83.0957V31.2715H86.4863V51H83.0957V48.5391H83.0137C82.6035 49.3958 82.0111 50.0703 81.2363 50.5625C80.4616 51.0456 79.5501 51.2871 78.502 51.2871ZM79.5273 48.4297C80.2292 48.4297 80.849 48.2383 81.3867 47.8555C81.9245 47.4727 82.3438 46.9303 82.6445 46.2285C82.9453 45.5267 83.0957 44.7018 83.0957 43.7539V43.7402C83.0957 42.7923 82.9408 41.972 82.6309 41.2793C82.3301 40.5775 81.9108 40.0352 81.373 39.6523C80.8444 39.2695 80.2292 39.0781 79.5273 39.0781C78.7982 39.0781 78.1647 39.2695 77.627 39.6523C77.0983 40.026 76.6882 40.5592 76.3965 41.252C76.1139 41.9447 75.9727 42.7741 75.9727 43.7402V43.7539C75.9727 44.7109 76.1139 45.5404 76.3965 46.2422C76.6882 46.944 77.0983 47.4863 77.627 47.8691C78.1647 48.2428 78.7982 48.4297 79.5273 48.4297ZM89.3574 51V36.5078H92.748V38.832H92.8301C93.1309 38.0391 93.6367 37.4056 94.3477 36.9316C95.0586 36.4486 95.8926 36.207 96.8496 36.207C97.5241 36.207 98.1302 36.3255 98.668 36.5625C99.2057 36.7904 99.6615 37.123 100.035 37.5605C100.418 37.9889 100.696 38.513 100.869 39.1328H100.938C101.174 38.5312 101.512 38.0163 101.949 37.5879C102.396 37.1504 102.915 36.8132 103.508 36.5762C104.109 36.3301 104.757 36.207 105.449 36.207C106.406 36.207 107.236 36.4121 107.938 36.8223C108.648 37.2233 109.2 37.7884 109.592 38.5176C109.993 39.2376 110.193 40.0853 110.193 41.0605V51H106.789V41.8945C106.789 41.0013 106.566 40.3086 106.119 39.8164C105.673 39.3242 105.03 39.0781 104.191 39.0781C103.645 39.0781 103.161 39.2057 102.742 39.4609C102.332 39.707 102.008 40.0534 101.771 40.5C101.544 40.9466 101.43 41.4616 101.43 42.0449V51H98.1211V41.7168C98.1211 40.8965 97.8887 40.2539 97.4238 39.7891C96.9681 39.3151 96.3438 39.0781 95.5508 39.0781C95.0039 39.0781 94.5208 39.2103 94.1016 39.4746C93.6823 39.7389 93.3496 40.099 93.1035 40.5547C92.8665 41.0104 92.748 41.5345 92.748 42.127V51H89.3574ZM119.299 51.2871C117.85 51.2871 116.601 50.9818 115.553 50.3711C114.514 49.7604 113.716 48.8945 113.16 47.7734C112.604 46.6523 112.326 45.3262 112.326 43.7949V43.7812C112.326 42.2591 112.604 40.9329 113.16 39.8027C113.725 38.6634 114.514 37.7793 115.525 37.1504C116.546 36.5215 117.749 36.207 119.135 36.207C120.511 36.207 121.701 36.5124 122.703 37.123C123.715 37.7246 124.49 38.5723 125.027 39.666C125.574 40.7598 125.848 42.0358 125.848 43.4941V44.5879H114.008V42.3184H124.221L122.58 44.4375V43.125C122.58 42.1771 122.434 41.3887 122.143 40.7598C121.851 40.1309 121.45 39.6615 120.939 39.3516C120.429 39.0326 119.841 38.873 119.176 38.873C118.501 38.873 117.9 39.0371 117.371 39.3652C116.852 39.6842 116.441 40.1628 116.141 40.8008C115.849 41.4388 115.703 42.2135 115.703 43.125V44.4375C115.703 45.3216 115.849 46.0781 116.141 46.707C116.441 47.3268 116.865 47.8053 117.412 48.1426C117.959 48.4707 118.611 48.6348 119.367 48.6348C119.932 48.6348 120.429 48.5482 120.857 48.375C121.286 48.1927 121.637 47.9603 121.91 47.6777C122.193 47.3952 122.389 47.0898 122.498 46.7617L122.525 46.666H125.697L125.67 46.8164C125.551 47.3724 125.333 47.9193 125.014 48.457C124.695 48.9857 124.266 49.4642 123.729 49.8926C123.191 50.321 122.553 50.6628 121.814 50.918C121.076 51.1641 120.238 51.2871 119.299 51.2871Z" fill="white"/>
</svg>
