<svg width="158" height="84" viewBox="0 0 158 84" fill="none" xmlns="http://www.w3.org/2000/svg">
<path d="M158 36C158 16.1177 141.882 0 122 0H36C16.1178 0 0 16.1178 0 36V48C0 67.8823 16.1178 84 36 84H146C152.627 84 158 78.6274 158 72V36Z" fill="#2C2C2C"/>
<path d="M44.2441 31.2715L39.0762 55.7852H36L41.168 31.2715H44.2441ZM45.625 51V36.5078H49.0156V39.0098H49.0977C49.3164 38.1348 49.7129 37.4512 50.2871 36.959C50.8704 36.4577 51.5814 36.207 52.4199 36.207C52.6296 36.207 52.8301 36.2207 53.0215 36.248C53.2129 36.2754 53.3724 36.3073 53.5 36.3438V39.4199C53.3633 39.3652 53.1673 39.3197 52.9121 39.2832C52.666 39.2467 52.3971 39.2285 52.1055 39.2285C51.4674 39.2285 50.916 39.3607 50.4512 39.625C49.9863 39.8802 49.6309 40.2585 49.3848 40.7598C49.1387 41.2611 49.0156 41.8717 49.0156 42.5918V51H45.625ZM61.0742 51.2871C59.625 51.2871 58.3763 50.9818 57.3281 50.3711C56.2891 49.7604 55.4915 48.8945 54.9355 47.7734C54.3796 46.6523 54.1016 45.3262 54.1016 43.7949V43.7812C54.1016 42.2591 54.3796 40.9329 54.9355 39.8027C55.5007 38.6634 56.2891 37.7793 57.3008 37.1504C58.3216 36.5215 59.5247 36.207 60.9102 36.207C62.2865 36.207 63.4759 36.5124 64.4785 37.123C65.4902 37.7246 66.265 38.5723 66.8027 39.666C67.3496 40.7598 67.623 42.0358 67.623 43.4941V44.5879H55.7832V42.3184H65.9961L64.3555 44.4375V43.125C64.3555 42.1771 64.2096 41.3887 63.918 40.7598C63.6263 40.1309 63.2253 39.6615 62.7148 39.3516C62.2044 39.0326 61.6165 38.873 60.9512 38.873C60.2767 38.873 59.6751 39.0371 59.1465 39.3652C58.627 39.6842 58.2168 40.1628 57.916 40.8008C57.6243 41.4388 57.4785 42.2135 57.4785 43.125V44.4375C57.4785 45.3216 57.6243 46.0781 57.916 46.707C58.2168 47.3268 58.6406 47.8053 59.1875 48.1426C59.7344 48.4707 60.3861 48.6348 61.1426 48.6348C61.7077 48.6348 62.2044 48.5482 62.6328 48.375C63.0612 48.1927 63.4121 47.9603 63.6855 47.6777C63.9681 47.3952 64.1641 47.0898 64.2734 46.7617L64.3008 46.666H67.4727L67.4453 46.8164C67.3268 47.3724 67.1081 47.9193 66.7891 48.457C66.4701 48.9857 66.0417 49.4642 65.5039 49.8926C64.9661 50.321 64.3281 50.6628 63.5898 50.918C62.8516 51.1641 62.013 51.2871 61.0742 51.2871ZM75.457 51.2871C74.1901 51.2871 73.1055 51.1003 72.2031 50.7266C71.3099 50.3529 70.6081 49.8288 70.0977 49.1543C69.5964 48.4707 69.291 47.6823 69.1816 46.7891L69.168 46.666H72.5176L72.5449 46.7891C72.6725 47.418 72.9733 47.9056 73.4473 48.252C73.9303 48.5983 74.6048 48.7715 75.4707 48.7715C76.0267 48.7715 76.5007 48.7031 76.8926 48.5664C77.2845 48.4297 77.5853 48.2292 77.7949 47.9648C78.0137 47.7005 78.123 47.3906 78.123 47.0352V47.0215C78.123 46.5931 77.9772 46.2467 77.6855 45.9824C77.3939 45.709 76.8698 45.4857 76.1133 45.3125L73.707 44.7793C72.3216 44.4785 71.278 43.9863 70.5762 43.3027C69.8835 42.6191 69.5371 41.7396 69.5371 40.6641V40.6504C69.5371 39.7663 69.7786 38.9915 70.2617 38.3262C70.7448 37.6608 71.4238 37.1413 72.2988 36.7676C73.1738 36.3939 74.1901 36.207 75.3477 36.207C76.5508 36.207 77.5807 36.4076 78.4375 36.8086C79.2943 37.2096 79.9551 37.7474 80.4199 38.4219C80.8939 39.0964 81.1491 39.8529 81.1855 40.6914L81.1992 40.8418H78.0273L78.0137 40.7324C77.9408 40.1491 77.6764 39.6706 77.2207 39.2969C76.765 38.9141 76.1406 38.7227 75.3477 38.7227C74.8464 38.7227 74.4089 38.7956 74.0352 38.9414C73.6706 39.0872 73.388 39.2923 73.1875 39.5566C72.9961 39.821 72.9004 40.1309 72.9004 40.4863V40.5C72.9004 40.9102 73.0553 41.2565 73.3652 41.5391C73.6842 41.8216 74.2174 42.0495 74.9648 42.2227L77.3711 42.7559C78.875 43.0931 79.946 43.5762 80.584 44.2051C81.222 44.8249 81.541 45.6589 81.541 46.707V46.7207C81.541 47.6322 81.2812 48.4342 80.7617 49.127C80.2422 49.8105 79.5221 50.3438 78.6016 50.7266C77.6901 51.1003 76.6419 51.2871 75.457 51.2871ZM88.6504 51.2871C87.584 51.2871 86.6771 51.0729 85.9297 50.6445C85.1914 50.207 84.6263 49.5827 84.2344 48.7715C83.8424 47.9603 83.6465 46.9987 83.6465 45.8867V36.5078H87.0371V45.2031C87.0371 46.2331 87.2786 47.0306 87.7617 47.5957C88.2448 48.1517 88.974 48.4297 89.9492 48.4297C90.5964 48.4297 91.1569 48.2839 91.6309 47.9922C92.1139 47.6914 92.4876 47.2767 92.752 46.748C93.0163 46.2194 93.1484 45.6042 93.1484 44.9023V36.5078H96.5527V51H93.1484V48.7305H93.0801C92.7064 49.5052 92.1504 50.125 91.4121 50.5898C90.6738 51.0547 89.7533 51.2871 88.6504 51.2871ZM99.4512 51V31.2715H102.855V51H99.4512ZM111.127 51.2871C109.623 51.2871 108.502 50.959 107.764 50.3027C107.035 49.6465 106.67 48.571 106.67 47.0762V39.1328H104.619V36.5078H106.67V32.8301H110.129V36.5078H112.822V39.1328H110.129V46.8027C110.129 47.5046 110.284 47.9922 110.594 48.2656C110.913 48.5299 111.378 48.6621 111.988 48.6621C112.161 48.6621 112.312 48.6576 112.439 48.6484C112.576 48.6302 112.704 48.6165 112.822 48.6074V51.1641C112.622 51.1914 112.376 51.2188 112.084 51.2461C111.801 51.2734 111.482 51.2871 111.127 51.2871Z" fill="white"/>
</svg>
