<svg width="166" height="82" viewBox="0 0 166 82" fill="none" xmlns="http://www.w3.org/2000/svg">
<path d="M0 36C0 16.1177 16.1178 0 36 0H130C149.882 0 166 16.1177 166 36V46C166 65.8822 149.882 82 130 82H12C5.37259 82 0 76.6274 0 70V36Z" fill="#2C2C2C"/>
<path d="M43.6172 39.2715L38.4492 63.7852H35.373L40.541 39.2715H43.6172ZM49.2773 59.2461C48.3203 59.2461 47.4727 59.0638 46.7344 58.6992C46.0052 58.3255 45.4355 57.8105 45.0254 57.1543C44.6243 56.4889 44.4238 55.7279 44.4238 54.8711V54.8438C44.4238 53.5586 44.9023 52.5423 45.8594 51.7949C46.8255 51.0384 48.1836 50.61 49.9336 50.5098L55.4707 50.168V52.4238L50.4121 52.7383C49.5736 52.793 48.931 52.9935 48.4844 53.3398C48.0378 53.6862 47.8145 54.1465 47.8145 54.7207V54.7344C47.8145 55.3268 48.0378 55.7962 48.4844 56.1426C48.9401 56.4798 49.5417 56.6484 50.2891 56.6484C50.9453 56.6484 51.5286 56.5163 52.0391 56.252C52.5586 55.9876 52.9688 55.6276 53.2695 55.1719C53.5703 54.7161 53.7207 54.2012 53.7207 53.627V49.2793C53.7207 48.5501 53.4883 47.9759 53.0234 47.5566C52.5677 47.1283 51.9069 46.9141 51.041 46.9141C50.2389 46.9141 49.5964 47.0872 49.1133 47.4336C48.6302 47.7708 48.3294 48.2083 48.2109 48.7461L48.1836 48.8691H45.0391L45.0527 48.7051C45.1257 47.8483 45.4128 47.0827 45.9141 46.4082C46.4154 45.7246 47.1081 45.1868 47.9922 44.7949C48.8854 44.403 49.9427 44.207 51.1641 44.207C52.3763 44.207 53.4245 44.4076 54.3086 44.8086C55.2018 45.2096 55.89 45.7702 56.373 46.4902C56.8652 47.2103 57.1113 48.0579 57.1113 49.0332V59H53.7207V56.7715H53.6387C53.3652 57.2728 53.0098 57.7103 52.5723 58.084C52.1348 58.4577 51.6335 58.7448 51.0684 58.9453C50.5124 59.1458 49.9154 59.2461 49.2773 59.2461ZM65.2598 59.2871C64.0384 59.2871 62.9766 58.9863 62.0742 58.3848C61.181 57.7741 60.4883 56.9036 59.9961 55.7734C59.513 54.6432 59.2715 53.3034 59.2715 51.7539V51.7402C59.2715 50.1816 59.5176 48.8418 60.0098 47.7207C60.502 46.5905 61.1947 45.7246 62.0879 45.123C62.9811 44.5124 64.0339 44.207 65.2461 44.207C66.276 44.207 67.1829 44.4577 67.9668 44.959C68.7598 45.4512 69.3613 46.1302 69.7715 46.9961H69.8535V39.2715H73.2441V59H69.8535V56.5391H69.7715C69.3613 57.3958 68.7689 58.0703 67.9941 58.5625C67.2194 59.0456 66.3079 59.2871 65.2598 59.2871ZM66.2852 56.4297C66.987 56.4297 67.6068 56.2383 68.1445 55.8555C68.6823 55.4727 69.1016 54.9303 69.4023 54.2285C69.7031 53.5267 69.8535 52.7018 69.8535 51.7539V51.7402C69.8535 50.7923 69.6986 49.972 69.3887 49.2793C69.0879 48.5775 68.6686 48.0352 68.1309 47.6523C67.6022 47.2695 66.987 47.0781 66.2852 47.0781C65.556 47.0781 64.9225 47.2695 64.3848 47.6523C63.8561 48.026 63.446 48.5592 63.1543 49.252C62.8717 49.9447 62.7305 50.7741 62.7305 51.7402V51.7539C62.7305 52.7109 62.8717 53.5404 63.1543 54.2422C63.446 54.944 63.8561 55.4863 64.3848 55.8691C64.9225 56.2428 65.556 56.4297 66.2852 56.4297ZM81.502 59.2871C80.2806 59.2871 79.2188 58.9863 78.3164 58.3848C77.4232 57.7741 76.7305 56.9036 76.2383 55.7734C75.7552 54.6432 75.5137 53.3034 75.5137 51.7539V51.7402C75.5137 50.1816 75.7598 48.8418 76.252 47.7207C76.7441 46.5905 77.4368 45.7246 78.3301 45.123C79.2233 44.5124 80.276 44.207 81.4883 44.207C82.5182 44.207 83.4251 44.4577 84.209 44.959C85.002 45.4512 85.6035 46.1302 86.0137 46.9961H86.0957V39.2715H89.4863V59H86.0957V56.5391H86.0137C85.6035 57.3958 85.0111 58.0703 84.2363 58.5625C83.4616 59.0456 82.5501 59.2871 81.502 59.2871ZM82.5273 56.4297C83.2292 56.4297 83.849 56.2383 84.3867 55.8555C84.9245 55.4727 85.3438 54.9303 85.6445 54.2285C85.9453 53.5267 86.0957 52.7018 86.0957 51.7539V51.7402C86.0957 50.7923 85.9408 49.972 85.6309 49.2793C85.3301 48.5775 84.9108 48.0352 84.373 47.6523C83.8444 47.2695 83.2292 47.0781 82.5273 47.0781C81.7982 47.0781 81.1647 47.2695 80.627 47.6523C80.0983 48.026 79.6882 48.5592 79.3965 49.252C79.1139 49.9447 78.9727 50.7741 78.9727 51.7402V51.7539C78.9727 52.7109 79.1139 53.5404 79.3965 54.2422C79.6882 54.944 80.0983 55.4863 80.627 55.8691C81.1647 56.2428 81.7982 56.4297 82.5273 56.4297ZM92.3574 59V44.5078H95.748V46.832H95.8301C96.1309 46.0391 96.6367 45.4056 97.3477 44.9316C98.0586 44.4486 98.8926 44.207 99.8496 44.207C100.524 44.207 101.13 44.3255 101.668 44.5625C102.206 44.7904 102.661 45.123 103.035 45.5605C103.418 45.9889 103.696 46.513 103.869 47.1328H103.938C104.174 46.5312 104.512 46.0163 104.949 45.5879C105.396 45.1504 105.915 44.8132 106.508 44.5762C107.109 44.3301 107.757 44.207 108.449 44.207C109.406 44.207 110.236 44.4121 110.938 44.8223C111.648 45.2233 112.2 45.7884 112.592 46.5176C112.993 47.2376 113.193 48.0853 113.193 49.0605V59H109.789V49.8945C109.789 49.0013 109.566 48.3086 109.119 47.8164C108.673 47.3242 108.03 47.0781 107.191 47.0781C106.645 47.0781 106.161 47.2057 105.742 47.4609C105.332 47.707 105.008 48.0534 104.771 48.5C104.544 48.9466 104.43 49.4616 104.43 50.0449V59H101.121V49.7168C101.121 48.8965 100.889 48.2539 100.424 47.7891C99.9681 47.3151 99.3438 47.0781 98.5508 47.0781C98.0039 47.0781 97.5208 47.2103 97.1016 47.4746C96.6823 47.7389 96.3496 48.099 96.1035 48.5547C95.8665 49.0104 95.748 49.5345 95.748 50.127V59H92.3574ZM122.299 59.2871C120.85 59.2871 119.601 58.9818 118.553 58.3711C117.514 57.7604 116.716 56.8945 116.16 55.7734C115.604 54.6523 115.326 53.3262 115.326 51.7949V51.7812C115.326 50.2591 115.604 48.9329 116.16 47.8027C116.725 46.6634 117.514 45.7793 118.525 45.1504C119.546 44.5215 120.749 44.207 122.135 44.207C123.511 44.207 124.701 44.5124 125.703 45.123C126.715 45.7246 127.49 46.5723 128.027 47.666C128.574 48.7598 128.848 50.0358 128.848 51.4941V52.5879H117.008V50.3184H127.221L125.58 52.4375V51.125C125.58 50.1771 125.434 49.3887 125.143 48.7598C124.851 48.1309 124.45 47.6615 123.939 47.3516C123.429 47.0326 122.841 46.873 122.176 46.873C121.501 46.873 120.9 47.0371 120.371 47.3652C119.852 47.6842 119.441 48.1628 119.141 48.8008C118.849 49.4388 118.703 50.2135 118.703 51.125V52.4375C118.703 53.3216 118.849 54.0781 119.141 54.707C119.441 55.3268 119.865 55.8053 120.412 56.1426C120.959 56.4707 121.611 56.6348 122.367 56.6348C122.932 56.6348 123.429 56.5482 123.857 56.375C124.286 56.1927 124.637 55.9603 124.91 55.6777C125.193 55.3952 125.389 55.0898 125.498 54.7617L125.525 54.666H128.697L128.67 54.8164C128.551 55.3724 128.333 55.9193 128.014 56.457C127.695 56.9857 127.266 57.4642 126.729 57.8926C126.191 58.321 125.553 58.6628 124.814 58.918C124.076 59.1641 123.238 59.2871 122.299 59.2871Z" fill="white"/>
<path d="M35.1758 29.123C34.7064 29.123 34.2848 29.0342 33.9111 28.8564C33.542 28.6742 33.2503 28.4167 33.0361 28.084C32.8219 27.7513 32.7148 27.3617 32.7148 26.915V26.9014C32.7148 26.236 32.9541 25.7165 33.4326 25.3428C33.9157 24.9645 34.5993 24.748 35.4834 24.6934L38.2246 24.5293V25.5752L35.6885 25.7393C35.1781 25.7712 34.8021 25.8805 34.5605 26.0674C34.319 26.2497 34.1982 26.5072 34.1982 26.8398V26.8535C34.1982 27.1908 34.3281 27.4574 34.5879 27.6533C34.8477 27.8447 35.1758 27.9404 35.5723 27.9404C35.9414 27.9404 36.2695 27.8675 36.5566 27.7217C36.8483 27.5713 37.0762 27.3708 37.2402 27.1201C37.4043 26.8649 37.4863 26.5778 37.4863 26.2588V23.9209C37.4863 23.5107 37.3587 23.1986 37.1035 22.9844C36.8529 22.7656 36.4792 22.6562 35.9824 22.6562C35.5677 22.6562 35.2282 22.7292 34.9639 22.875C34.7041 23.0208 34.5309 23.2259 34.4443 23.4902L34.4307 23.5107H33.002L33.0088 23.4629C33.068 23.0527 33.2298 22.6973 33.4941 22.3965C33.763 22.0911 34.1139 21.8542 34.5469 21.6855C34.9844 21.5169 35.4834 21.4326 36.0439 21.4326C36.6683 21.4326 37.1969 21.5329 37.6299 21.7334C38.0674 21.9294 38.3978 22.2142 38.6211 22.5879C38.849 22.957 38.9629 23.4014 38.9629 23.9209V29H37.4863V27.9473H37.377C37.2311 28.1979 37.0488 28.4121 36.8301 28.5898C36.6113 28.763 36.363 28.8952 36.085 28.9863C35.807 29.0775 35.5039 29.123 35.1758 29.123ZM41.123 29V18.6641H42.6064V29H41.123ZM44.8828 29V18.6641H46.3662V29H44.8828ZM53.1133 31.6113C53.0221 31.6113 52.9242 31.6068 52.8193 31.5977C52.7145 31.5931 52.6143 31.5863 52.5186 31.5771V30.4082C52.5915 30.4173 52.6712 30.4242 52.7578 30.4287C52.849 30.4333 52.9355 30.4355 53.0176 30.4355C53.3639 30.4355 53.6442 30.3535 53.8584 30.1895C54.0726 30.0299 54.2344 29.7633 54.3438 29.3896L54.4531 29.0068L51.7598 21.5762H53.3662L55.4648 28.2686L55 27.5029H55.5674L55.1094 28.2686L57.2012 21.5762H58.7666L56.0049 29.2803C55.7952 29.8727 55.5628 30.3376 55.3076 30.6748C55.0524 31.0166 54.7493 31.2581 54.3984 31.3994C54.0475 31.5407 53.6191 31.6113 53.1133 31.6113ZM63.1348 29.1436C62.4102 29.1436 61.7835 28.9886 61.2549 28.6787C60.7308 28.3688 60.3275 27.9268 60.0449 27.3525C59.7624 26.7738 59.6211 26.0879 59.6211 25.2949V25.2812C59.6211 24.4837 59.7624 23.7979 60.0449 23.2236C60.332 22.6494 60.7376 22.2074 61.2617 21.8975C61.7904 21.5876 62.4147 21.4326 63.1348 21.4326C63.8594 21.4326 64.4837 21.5876 65.0078 21.8975C65.5319 22.2028 65.9352 22.6449 66.2178 23.2236C66.5049 23.7979 66.6484 24.4837 66.6484 25.2812V25.2949C66.6484 26.0879 66.5049 26.7738 66.2178 27.3525C65.9352 27.9268 65.5319 28.3688 65.0078 28.6787C64.4883 28.9886 63.8639 29.1436 63.1348 29.1436ZM63.1348 27.8994C63.5586 27.8994 63.9186 27.7969 64.2148 27.5918C64.5111 27.3822 64.7367 27.0837 64.8916 26.6963C65.0465 26.3089 65.124 25.8418 65.124 25.2949V25.2812C65.124 24.7298 65.0465 24.2604 64.8916 23.873C64.7367 23.4857 64.5111 23.1895 64.2148 22.9844C63.9186 22.7747 63.5586 22.6699 63.1348 22.6699C62.7109 22.6699 62.3509 22.7747 62.0547 22.9844C61.7585 23.1895 61.5306 23.4857 61.3711 23.873C61.2161 24.2604 61.1387 24.7298 61.1387 25.2812V25.2949C61.1387 25.8418 61.2161 26.3089 61.3711 26.6963C61.5306 27.0837 61.7585 27.3822 62.0547 27.5918C62.3509 27.7969 62.7109 27.8994 63.1348 27.8994ZM70.8867 29.1436C70.3307 29.1436 69.8613 29.0365 69.4785 28.8223C69.1003 28.6035 68.8154 28.2891 68.624 27.8789C68.4372 27.4642 68.3438 26.9652 68.3438 26.3818V21.5762H69.8271V26.0332C69.8271 26.6439 69.9479 27.1019 70.1895 27.4072C70.431 27.7126 70.8252 27.8652 71.3721 27.8652C71.764 27.8652 72.0944 27.7878 72.3633 27.6328C72.6367 27.4733 72.8418 27.25 72.9785 26.9629C73.1152 26.6712 73.1836 26.3271 73.1836 25.9307V21.5762H74.6738V29H73.1836V27.8789H73.0742C72.8965 28.2754 72.623 28.5853 72.2539 28.8086C71.8848 29.0319 71.429 29.1436 70.8867 29.1436ZM76.8066 29V21.5762H78.29V22.6973H78.4062C78.5384 22.3008 78.7708 21.9932 79.1035 21.7744C79.4408 21.5557 79.8555 21.4463 80.3477 21.4463C80.4707 21.4463 80.5915 21.4531 80.71 21.4668C80.8285 21.4805 80.9242 21.4964 80.9971 21.5146V22.8818C80.8649 22.8545 80.7327 22.834 80.6006 22.8203C80.473 22.8066 80.3385 22.7998 80.1973 22.7998C79.819 22.7998 79.4863 22.8727 79.1992 23.0186C78.9167 23.1644 78.6934 23.3695 78.5293 23.6338C78.3698 23.8936 78.29 24.2035 78.29 24.5635V29H76.8066ZM86.3086 29V18.6641H87.792V22.6973H87.9082C88.0905 22.3008 88.3594 21.9909 88.7148 21.7676C89.0703 21.5443 89.5192 21.4326 90.0615 21.4326C90.613 21.4326 91.0801 21.5397 91.4629 21.7539C91.8457 21.9681 92.1374 22.2826 92.3379 22.6973C92.5384 23.1074 92.6387 23.6064 92.6387 24.1943V29H91.1484V24.543C91.1484 23.9232 91.0186 23.4629 90.7588 23.1621C90.5036 22.8568 90.1025 22.7041 89.5557 22.7041C89.1956 22.7041 88.8835 22.7839 88.6191 22.9434C88.3548 23.0983 88.1497 23.3216 88.0039 23.6133C87.8626 23.9004 87.792 24.2445 87.792 24.6455V29H86.3086ZM97.8477 29.1436C97.123 29.1436 96.4964 28.9886 95.9678 28.6787C95.4437 28.3688 95.0404 27.9268 94.7578 27.3525C94.4753 26.7738 94.334 26.0879 94.334 25.2949V25.2812C94.334 24.4837 94.4753 23.7979 94.7578 23.2236C95.0449 22.6494 95.4505 22.2074 95.9746 21.8975C96.5033 21.5876 97.1276 21.4326 97.8477 21.4326C98.5723 21.4326 99.1966 21.5876 99.7207 21.8975C100.245 22.2028 100.648 22.6449 100.931 23.2236C101.218 23.7979 101.361 24.4837 101.361 25.2812V25.2949C101.361 26.0879 101.218 26.7738 100.931 27.3525C100.648 27.9268 100.245 28.3688 99.7207 28.6787C99.2012 28.9886 98.5768 29.1436 97.8477 29.1436ZM97.8477 27.8994C98.2715 27.8994 98.6315 27.7969 98.9277 27.5918C99.224 27.3822 99.4495 27.0837 99.6045 26.6963C99.7594 26.3089 99.8369 25.8418 99.8369 25.2949V25.2812C99.8369 24.7298 99.7594 24.2604 99.6045 23.873C99.4495 23.4857 99.224 23.1895 98.9277 22.9844C98.6315 22.7747 98.2715 22.6699 97.8477 22.6699C97.4238 22.6699 97.0638 22.7747 96.7676 22.9844C96.4714 23.1895 96.2435 23.4857 96.084 23.873C95.929 24.2604 95.8516 24.7298 95.8516 25.2812V25.2949C95.8516 25.8418 95.929 26.3089 96.084 26.6963C96.2435 27.0837 96.4714 27.3822 96.7676 27.5918C97.0638 27.7969 97.4238 27.8994 97.8477 27.8994ZM103.125 29V21.5762H104.608V22.7178H104.725C104.889 22.3076 105.144 21.9909 105.49 21.7676C105.841 21.5443 106.26 21.4326 106.748 21.4326C107.085 21.4326 107.388 21.4873 107.657 21.5967C107.926 21.7061 108.156 21.861 108.348 22.0615C108.544 22.2575 108.696 22.4899 108.806 22.7588H108.922C109.045 22.4899 109.218 22.2575 109.441 22.0615C109.665 21.861 109.924 21.7061 110.221 21.5967C110.521 21.4873 110.84 21.4326 111.178 21.4326C111.679 21.4326 112.107 21.5306 112.463 21.7266C112.818 21.918 113.09 22.196 113.276 22.5605C113.463 22.9251 113.557 23.3649 113.557 23.8799V29H112.073V24.2354C112.073 23.7249 111.955 23.3421 111.718 23.0869C111.485 22.8317 111.128 22.7041 110.645 22.7041C110.33 22.7041 110.054 22.777 109.817 22.9229C109.585 23.0641 109.403 23.2555 109.271 23.4971C109.143 23.734 109.079 24.0029 109.079 24.3037V29H107.596V24.085C107.596 23.6611 107.466 23.3262 107.206 23.0801C106.951 22.8294 106.604 22.7041 106.167 22.7041C105.871 22.7041 105.604 22.7816 105.367 22.9365C105.135 23.0915 104.95 23.3011 104.813 23.5654C104.677 23.8252 104.608 24.1169 104.608 24.4404V29H103.125ZM115.655 29V21.5762H117.146V29H115.655ZM116.407 20.25C116.152 20.25 115.933 20.1589 115.751 19.9766C115.569 19.7943 115.478 19.5755 115.478 19.3203C115.478 19.0651 115.569 18.8486 115.751 18.6709C115.933 18.4886 116.152 18.3975 116.407 18.3975C116.662 18.3975 116.881 18.4886 117.063 18.6709C117.246 18.8486 117.337 19.0651 117.337 19.3203C117.337 19.5755 117.246 19.7943 117.063 19.9766C116.881 20.1589 116.662 20.25 116.407 20.25ZM122.416 29.1436C121.691 29.1436 121.069 28.9886 120.55 28.6787C120.03 28.3643 119.629 27.9199 119.347 27.3457C119.069 26.7715 118.93 26.0924 118.93 25.3086V25.3018C118.93 24.527 119.069 23.8503 119.347 23.2715C119.629 22.6927 120.026 22.2415 120.536 21.918C121.051 21.5944 121.653 21.4326 122.341 21.4326C123.034 21.4326 123.628 21.5876 124.125 21.8975C124.626 22.2074 125.011 22.6426 125.28 23.2031C125.549 23.7591 125.684 24.4108 125.684 25.1582V25.6777H119.682V24.6182H124.945L124.234 25.6025V25.0078C124.234 24.4792 124.152 24.0417 123.988 23.6953C123.829 23.3444 123.608 23.0824 123.325 22.9092C123.043 22.736 122.717 22.6494 122.348 22.6494C121.979 22.6494 121.648 22.7406 121.356 22.9229C121.069 23.1006 120.841 23.3649 120.673 23.7158C120.509 24.0667 120.427 24.4974 120.427 25.0078V25.6025C120.427 26.0902 120.509 26.5072 120.673 26.8535C120.837 27.1999 121.069 27.4642 121.37 27.6465C121.675 27.8288 122.035 27.9199 122.45 27.9199C122.769 27.9199 123.043 27.8766 123.271 27.79C123.503 27.6989 123.692 27.5872 123.838 27.4551C123.988 27.3229 124.091 27.193 124.146 27.0654L124.173 27.0107H125.608L125.595 27.0723C125.531 27.3184 125.419 27.5645 125.26 27.8105C125.1 28.0521 124.888 28.2731 124.624 28.4736C124.364 28.6742 124.05 28.8359 123.681 28.959C123.316 29.082 122.895 29.1436 122.416 29.1436ZM130.147 29.1436C129.55 29.1436 129.031 29.057 128.589 28.8838C128.147 28.7061 127.796 28.4622 127.536 28.1523C127.276 27.8379 127.124 27.4733 127.078 27.0586V27.0449H128.568V27.0586C128.664 27.3366 128.846 27.5622 129.115 27.7354C129.384 27.9085 129.74 27.9951 130.182 27.9951C130.487 27.9951 130.754 27.9518 130.981 27.8652C131.214 27.7786 131.396 27.6579 131.528 27.5029C131.66 27.348 131.727 27.1702 131.727 26.9697V26.9561C131.727 26.7236 131.633 26.5277 131.446 26.3682C131.259 26.2087 130.952 26.0788 130.523 25.9785L129.334 25.7051C128.637 25.5456 128.119 25.3018 127.782 24.9736C127.45 24.641 127.283 24.2035 127.283 23.6611V23.6543C127.283 23.2214 127.406 22.8385 127.652 22.5059C127.898 22.1686 128.238 21.9066 128.671 21.7197C129.108 21.5283 129.607 21.4326 130.168 21.4326C130.733 21.4326 131.225 21.5215 131.645 21.6992C132.068 21.8724 132.403 22.1139 132.649 22.4238C132.896 22.7292 133.041 23.0846 133.087 23.4902V23.4971H131.665V23.4834C131.597 23.2236 131.433 23.0072 131.173 22.834C130.918 22.6608 130.58 22.5742 130.161 22.5742C129.892 22.5742 129.653 22.6175 129.443 22.7041C129.234 22.7861 129.067 22.9023 128.944 23.0527C128.826 23.1986 128.767 23.3717 128.767 23.5723V23.5859C128.767 23.8184 128.858 24.0098 129.04 24.1602C129.222 24.3105 129.521 24.4359 129.936 24.5361L131.118 24.8027C131.829 24.9714 132.358 25.2152 132.704 25.5342C133.055 25.8532 133.23 26.2816 133.23 26.8193V26.833C133.23 27.2887 133.096 27.6921 132.827 28.043C132.558 28.3893 132.191 28.6605 131.727 28.8564C131.266 29.0479 130.74 29.1436 130.147 29.1436Z" fill="#868686"/>
</svg>
