<svg width="429" height="82" viewBox="0 0 429 82" fill="none" xmlns="http://www.w3.org/2000/svg">
<path d="M429 36C429 16.1177 412.882 0 393 0H36C16.1177 0 0 16.1177 0 36V46C0 65.8822 16.1177 82 36 82H417C423.627 82 429 76.6274 429 70V36Z" fill="#2C2C2C"/>
<path d="M40.2441 39.2715L35.0762 63.7852H32L37.168 39.2715H40.2441ZM41.625 63.7852V44.5078H45.0156V47.0098H45.0977C45.3802 46.4264 45.7357 45.9297 46.1641 45.5195C46.6016 45.1003 47.1074 44.7767 47.6816 44.5488C48.265 44.321 48.8984 44.207 49.582 44.207C50.8125 44.207 51.8743 44.5124 52.7676 45.123C53.6699 45.7246 54.3626 46.5905 54.8457 47.7207C55.3379 48.8509 55.584 50.1953 55.584 51.7539V51.7676C55.584 53.3171 55.3379 54.6569 54.8457 55.7871C54.3626 56.9082 53.6745 57.7741 52.7812 58.3848C51.8971 58.9863 50.849 59.2871 49.6367 59.2871C48.9531 59.2871 48.3151 59.1777 47.7227 58.959C47.1393 58.7402 46.6243 58.4258 46.1777 58.0156C45.7311 57.6055 45.3711 57.1178 45.0977 56.5527H45.0156V63.7852H41.625ZM48.584 56.4297C49.3132 56.4297 49.9421 56.2383 50.4707 55.8555C50.9993 55.4727 51.4049 54.9349 51.6875 54.2422C51.9792 53.5404 52.125 52.7155 52.125 51.7676V51.7539C52.125 50.7786 51.9792 49.9447 51.6875 49.252C51.4049 48.5501 50.9948 48.0124 50.457 47.6387C49.9284 47.265 49.304 47.0781 48.584 47.0781C47.8822 47.0781 47.2624 47.2695 46.7246 47.6523C46.1868 48.0352 45.763 48.5775 45.4531 49.2793C45.1523 49.972 45.002 50.7969 45.002 51.7539V51.7676C45.002 52.7155 45.1523 53.5404 45.4531 54.2422C45.763 54.9349 46.1868 55.4727 46.7246 55.8555C47.2624 56.2383 47.8822 56.4297 48.584 56.4297ZM62.7207 59.2871C61.6543 59.2871 60.7474 59.0729 60 58.6445C59.2617 58.207 58.6966 57.5827 58.3047 56.7715C57.9128 55.9603 57.7168 54.9987 57.7168 53.8867V44.5078H61.1074V53.2031C61.1074 54.2331 61.349 55.0306 61.832 55.5957C62.3151 56.1517 63.0443 56.4297 64.0195 56.4297C64.6667 56.4297 65.2272 56.2839 65.7012 55.9922C66.1842 55.6914 66.5579 55.2767 66.8223 54.748C67.0866 54.2194 67.2188 53.6042 67.2188 52.9023V44.5078H70.623V59H67.2188V56.7305H67.1504C66.7767 57.5052 66.2207 58.125 65.4824 58.5898C64.7441 59.0547 63.8236 59.2871 62.7207 59.2871ZM79.0859 59.2871C77.819 59.2871 76.7344 59.1003 75.832 58.7266C74.9388 58.3529 74.237 57.8288 73.7266 57.1543C73.2253 56.4707 72.9199 55.6823 72.8105 54.7891L72.7969 54.666H76.1465L76.1738 54.7891C76.3014 55.418 76.6022 55.9056 77.0762 56.252C77.5592 56.5983 78.2337 56.7715 79.0996 56.7715C79.6556 56.7715 80.1296 56.7031 80.5215 56.5664C80.9134 56.4297 81.2142 56.2292 81.4238 55.9648C81.6426 55.7005 81.752 55.3906 81.752 55.0352V55.0215C81.752 54.5931 81.6061 54.2467 81.3145 53.9824C81.0228 53.709 80.4987 53.4857 79.7422 53.3125L77.3359 52.7793C75.9505 52.4785 74.9069 51.9863 74.2051 51.3027C73.5124 50.6191 73.166 49.7396 73.166 48.6641V48.6504C73.166 47.7663 73.4076 46.9915 73.8906 46.3262C74.3737 45.6608 75.0527 45.1413 75.9277 44.7676C76.8027 44.3939 77.819 44.207 78.9766 44.207C80.1797 44.207 81.2096 44.4076 82.0664 44.8086C82.9232 45.2096 83.584 45.7474 84.0488 46.4219C84.5228 47.0964 84.778 47.8529 84.8145 48.6914L84.8281 48.8418H81.6562L81.6426 48.7324C81.5697 48.1491 81.3053 47.6706 80.8496 47.2969C80.3939 46.9141 79.7695 46.7227 78.9766 46.7227C78.4753 46.7227 78.0378 46.7956 77.6641 46.9414C77.2995 47.0872 77.0169 47.2923 76.8164 47.5566C76.625 47.821 76.5293 48.1309 76.5293 48.4863V48.5C76.5293 48.9102 76.6842 49.2565 76.9941 49.5391C77.3132 49.8216 77.8464 50.0495 78.5938 50.2227L81 50.7559C82.5039 51.0931 83.5749 51.5762 84.2129 52.2051C84.8509 52.8249 85.1699 53.6589 85.1699 54.707V54.7207C85.1699 55.6322 84.9102 56.4342 84.3906 57.127C83.8711 57.8105 83.151 58.3438 82.2305 58.7266C81.319 59.1003 80.2708 59.2871 79.0859 59.2871ZM87.4395 59V39.2715H90.8438V46.9414H90.9121C91.2949 46.0664 91.8646 45.3919 92.6211 44.918C93.3867 44.444 94.3073 44.207 95.3828 44.207C96.431 44.207 97.3379 44.4486 98.1035 44.9316C98.8691 45.4056 99.4616 46.0755 99.8809 46.9414C100.3 47.7982 100.51 48.8099 100.51 49.9766V59H97.1055V50.6465C97.1055 49.5345 96.8366 48.6641 96.2988 48.0352C95.7611 47.3971 95.0046 47.0781 94.0293 47.0781C93.3913 47.0781 92.8307 47.2331 92.3477 47.543C91.8737 47.8438 91.5046 48.263 91.2402 48.8008C90.9759 49.3294 90.8438 49.9447 90.8438 50.6465V59H87.4395ZM120.539 62.2812C118.807 62.2812 117.217 62.0215 115.768 61.502C114.327 60.9915 113.079 60.2441 112.021 59.2598C110.964 58.2754 110.144 57.0723 109.561 55.6504C108.977 54.2194 108.686 52.5924 108.686 50.7695V50.7559C108.686 49.0423 108.964 47.4837 109.52 46.0801C110.085 44.6764 110.878 43.4688 111.898 42.457C112.919 41.4362 114.132 40.6523 115.535 40.1055C116.948 39.5495 118.497 39.2715 120.184 39.2715C122.353 39.2715 124.267 39.6999 125.926 40.5566C127.585 41.4134 128.883 42.6302 129.822 44.207C130.761 45.7747 131.23 47.625 131.23 49.7578V49.7715C131.23 51.2572 131.03 52.515 130.629 53.5449C130.228 54.5658 129.672 55.3451 128.961 55.8828C128.259 56.4206 127.457 56.6895 126.555 56.6895C125.707 56.6895 124.987 56.4707 124.395 56.0332C123.811 55.5957 123.387 55.0488 123.123 54.3926L123.027 54.1875H122.918C122.581 55.0078 122.079 55.623 121.414 56.0332C120.749 56.4434 119.983 56.6484 119.117 56.6484C118.188 56.6484 117.367 56.4069 116.656 55.9238C115.945 55.4316 115.389 54.748 114.988 53.873C114.596 52.9889 114.4 51.959 114.4 50.7832V50.7695C114.4 49.6484 114.601 48.6641 115.002 47.8164C115.412 46.9596 115.973 46.2897 116.684 45.8066C117.395 45.3236 118.206 45.082 119.117 45.082C119.865 45.082 120.539 45.2598 121.141 45.6152C121.742 45.9707 122.175 46.4538 122.439 47.0645H122.549V45.3691H125.064V51.8496C125.064 52.7155 125.21 53.3717 125.502 53.8184C125.803 54.2559 126.199 54.4746 126.691 54.4746C127.339 54.4746 127.858 54.0781 128.25 53.2852C128.642 52.4922 128.838 51.3483 128.838 49.8535V49.8398C128.838 48.099 128.473 46.5951 127.744 45.3281C127.024 44.0612 126.003 43.0859 124.682 42.4023C123.369 41.7188 121.829 41.377 120.061 41.377C118.748 41.377 117.54 41.6048 116.438 42.0605C115.344 42.5072 114.396 43.1497 113.594 43.9883C112.792 44.8177 112.172 45.8066 111.734 46.9551C111.297 48.1035 111.078 49.375 111.078 50.7695V50.7832C111.078 52.7884 111.488 54.4883 112.309 55.8828C113.129 57.2773 114.259 58.3346 115.699 59.0547C117.139 59.7839 118.798 60.1484 120.676 60.1484C121.551 60.1484 122.398 60.0892 123.219 59.9707C124.048 59.8522 124.736 59.6836 125.283 59.4648V61.584C123.916 62.0488 122.335 62.2812 120.539 62.2812ZM119.705 54.3516C120.525 54.3516 121.177 54.0371 121.66 53.4082C122.143 52.7702 122.385 51.9134 122.385 50.8379V50.8105C122.385 49.7441 122.139 48.901 121.646 48.2812C121.163 47.6615 120.525 47.3516 119.732 47.3516C119.195 47.3516 118.734 47.4883 118.352 47.7617C117.969 48.0352 117.673 48.4316 117.463 48.9512C117.262 49.4616 117.162 50.0814 117.162 50.8105V50.8242C117.162 51.5625 117.262 52.196 117.463 52.7246C117.673 53.2441 117.969 53.6452 118.352 53.9277C118.734 54.2103 119.186 54.3516 119.705 54.3516ZM140.008 59.2871C138.577 59.2871 137.337 58.9818 136.289 58.3711C135.241 57.7604 134.43 56.89 133.855 55.7598C133.29 54.6296 133.008 53.2897 133.008 51.7402V51.7266C133.008 50.1862 133.295 48.8555 133.869 47.7344C134.443 46.6042 135.25 45.7337 136.289 45.123C137.337 44.5124 138.563 44.207 139.967 44.207C141.243 44.207 142.346 44.4531 143.275 44.9453C144.205 45.4284 144.934 46.071 145.463 46.873C145.992 47.6751 146.292 48.5592 146.365 49.5254V49.6211H143.166L143.139 49.5117C143.002 48.8099 142.669 48.2129 142.141 47.7207C141.621 47.2194 140.91 46.9688 140.008 46.9688C139.297 46.9688 138.673 47.1647 138.135 47.5566C137.606 47.9395 137.196 48.4863 136.904 49.1973C136.613 49.9082 136.467 50.7604 136.467 51.7539V51.7676C136.467 52.7702 136.613 53.627 136.904 54.3379C137.205 55.0488 137.62 55.5957 138.148 55.9785C138.686 56.3522 139.311 56.5391 140.021 56.5391C140.887 56.5391 141.585 56.3066 142.113 55.8418C142.651 55.3678 142.997 54.7526 143.152 53.9961L143.18 53.873H146.393L146.379 53.9688C146.288 54.9714 145.969 55.8737 145.422 56.6758C144.875 57.4779 144.141 58.1159 143.221 58.5898C142.3 59.0547 141.229 59.2871 140.008 59.2871ZM154.842 59.2871C153.42 59.2871 152.185 58.9863 151.137 58.3848C150.089 57.7741 149.273 56.9082 148.689 55.7871C148.115 54.6569 147.828 53.3125 147.828 51.7539V51.7266C147.828 50.1771 148.12 48.8418 148.703 47.7207C149.286 46.5905 150.102 45.7246 151.15 45.123C152.199 44.5124 153.424 44.207 154.828 44.207C156.241 44.207 157.471 44.5124 158.52 45.123C159.577 45.7246 160.397 46.5859 160.98 47.707C161.564 48.8281 161.855 50.168 161.855 51.7266V51.7539C161.855 53.3216 161.564 54.6706 160.98 55.8008C160.406 56.9219 159.595 57.7832 158.547 58.3848C157.499 58.9863 156.264 59.2871 154.842 59.2871ZM154.855 56.5391C155.576 56.5391 156.2 56.3522 156.729 55.9785C157.257 55.6048 157.663 55.0625 157.945 54.3516C158.237 53.6315 158.383 52.7656 158.383 51.7539V51.7266C158.383 50.724 158.237 49.8672 157.945 49.1562C157.654 48.4453 157.239 47.903 156.701 47.5293C156.173 47.1556 155.548 46.9688 154.828 46.9688C154.126 46.9688 153.507 47.1556 152.969 47.5293C152.44 47.903 152.025 48.4453 151.725 49.1562C151.433 49.8672 151.287 50.724 151.287 51.7266V51.7539C151.287 52.7656 151.433 53.6315 151.725 54.3516C152.025 55.0625 152.44 55.6048 152.969 55.9785C153.507 56.3522 154.135 56.5391 154.855 56.5391ZM170.455 59.2871C169.033 59.2871 167.798 58.9863 166.75 58.3848C165.702 57.7741 164.886 56.9082 164.303 55.7871C163.729 54.6569 163.441 53.3125 163.441 51.7539V51.7266C163.441 50.1771 163.733 48.8418 164.316 47.7207C164.9 46.5905 165.715 45.7246 166.764 45.123C167.812 44.5124 169.038 44.207 170.441 44.207C171.854 44.207 173.085 44.5124 174.133 45.123C175.19 45.7246 176.01 46.5859 176.594 47.707C177.177 48.8281 177.469 50.168 177.469 51.7266V51.7539C177.469 53.3216 177.177 54.6706 176.594 55.8008C176.02 56.9219 175.208 57.7832 174.16 58.3848C173.112 58.9863 171.877 59.2871 170.455 59.2871ZM170.469 56.5391C171.189 56.5391 171.813 56.3522 172.342 55.9785C172.87 55.6048 173.276 55.0625 173.559 54.3516C173.85 53.6315 173.996 52.7656 173.996 51.7539V51.7266C173.996 50.724 173.85 49.8672 173.559 49.1562C173.267 48.4453 172.852 47.903 172.314 47.5293C171.786 47.1556 171.161 46.9688 170.441 46.9688C169.74 46.9688 169.12 47.1556 168.582 47.5293C168.053 47.903 167.639 48.4453 167.338 49.1562C167.046 49.8672 166.9 50.724 166.9 51.7266V51.7539C166.9 52.7656 167.046 53.6315 167.338 54.3516C167.639 55.0625 168.053 55.6048 168.582 55.9785C169.12 56.3522 169.749 56.5391 170.469 56.5391ZM179.752 59V39.2715H183.156V59H179.752ZM191.441 59.2871C190.22 59.2871 189.158 58.9863 188.256 58.3848C187.363 57.7741 186.67 56.9036 186.178 55.7734C185.695 54.6432 185.453 53.3034 185.453 51.7539V51.7402C185.453 50.1816 185.699 48.8418 186.191 47.7207C186.684 46.5905 187.376 45.7246 188.27 45.123C189.163 44.5124 190.215 44.207 191.428 44.207C192.458 44.207 193.365 44.4577 194.148 44.959C194.941 45.4512 195.543 46.1302 195.953 46.9961H196.035V39.2715H199.426V59H196.035V56.5391H195.953C195.543 57.3958 194.951 58.0703 194.176 58.5625C193.401 59.0456 192.49 59.2871 191.441 59.2871ZM192.467 56.4297C193.169 56.4297 193.788 56.2383 194.326 55.8555C194.864 55.4727 195.283 54.9303 195.584 54.2285C195.885 53.5267 196.035 52.7018 196.035 51.7539V51.7402C196.035 50.7923 195.88 49.972 195.57 49.2793C195.27 48.5775 194.85 48.0352 194.312 47.6523C193.784 47.2695 193.169 47.0781 192.467 47.0781C191.738 47.0781 191.104 47.2695 190.566 47.6523C190.038 48.026 189.628 48.5592 189.336 49.252C189.053 49.9447 188.912 50.7741 188.912 51.7402V51.7539C188.912 52.7109 189.053 53.5404 189.336 54.2422C189.628 54.944 190.038 55.4863 190.566 55.8691C191.104 56.2428 191.738 56.4297 192.467 56.4297ZM207.232 59.2871C206.166 59.2871 205.259 59.0729 204.512 58.6445C203.773 58.207 203.208 57.5827 202.816 56.7715C202.424 55.9603 202.229 54.9987 202.229 53.8867V44.5078H205.619V53.2031C205.619 54.2331 205.861 55.0306 206.344 55.5957C206.827 56.1517 207.556 56.4297 208.531 56.4297C209.178 56.4297 209.739 56.2839 210.213 55.9922C210.696 55.6914 211.07 55.2767 211.334 54.748C211.598 54.2194 211.73 53.6042 211.73 52.9023V44.5078H215.135V59H211.73V56.7305H211.662C211.288 57.5052 210.732 58.125 209.994 58.5898C209.256 59.0547 208.335 59.2871 207.232 59.2871ZM223.324 59.2871C222.103 59.2871 221.041 58.9863 220.139 58.3848C219.245 57.7741 218.553 56.9036 218.061 55.7734C217.577 54.6432 217.336 53.3034 217.336 51.7539V51.7402C217.336 50.1816 217.582 48.8418 218.074 47.7207C218.566 46.5905 219.259 45.7246 220.152 45.123C221.046 44.5124 222.098 44.207 223.311 44.207C224.34 44.207 225.247 44.4577 226.031 44.959C226.824 45.4512 227.426 46.1302 227.836 46.9961H227.918V39.2715H231.309V59H227.918V56.5391H227.836C227.426 57.3958 226.833 58.0703 226.059 58.5625C225.284 59.0456 224.372 59.2871 223.324 59.2871ZM224.35 56.4297C225.051 56.4297 225.671 56.2383 226.209 55.8555C226.747 55.4727 227.166 54.9303 227.467 54.2285C227.768 53.5267 227.918 52.7018 227.918 51.7539V51.7402C227.918 50.7923 227.763 49.972 227.453 49.2793C227.152 48.5775 226.733 48.0352 226.195 47.6523C225.667 47.2695 225.051 47.0781 224.35 47.0781C223.62 47.0781 222.987 47.2695 222.449 47.6523C221.921 48.026 221.51 48.5592 221.219 49.252C220.936 49.9447 220.795 50.7741 220.795 51.7402V51.7539C220.795 52.7109 220.936 53.5404 221.219 54.2422C221.51 54.944 221.921 55.4863 222.449 55.8691C222.987 56.2428 223.62 56.4297 224.35 56.4297ZM240.551 59.2871C239.102 59.2871 237.853 58.9818 236.805 58.3711C235.766 57.7604 234.968 56.8945 234.412 55.7734C233.856 54.6523 233.578 53.3262 233.578 51.7949V51.7812C233.578 50.2591 233.856 48.9329 234.412 47.8027C234.977 46.6634 235.766 45.7793 236.777 45.1504C237.798 44.5215 239.001 44.207 240.387 44.207C241.763 44.207 242.952 44.5124 243.955 45.123C244.967 45.7246 245.742 46.5723 246.279 47.666C246.826 48.7598 247.1 50.0358 247.1 51.4941V52.5879H235.26V50.3184H245.473L243.832 52.4375V51.125C243.832 50.1771 243.686 49.3887 243.395 48.7598C243.103 48.1309 242.702 47.6615 242.191 47.3516C241.681 47.0326 241.093 46.873 240.428 46.873C239.753 46.873 239.152 47.0371 238.623 47.3652C238.104 47.6842 237.693 48.1628 237.393 48.8008C237.101 49.4388 236.955 50.2135 236.955 51.125V52.4375C236.955 53.3216 237.101 54.0781 237.393 54.707C237.693 55.3268 238.117 55.8053 238.664 56.1426C239.211 56.4707 239.863 56.6348 240.619 56.6348C241.184 56.6348 241.681 56.5482 242.109 56.375C242.538 56.1927 242.889 55.9603 243.162 55.6777C243.445 55.3952 243.641 55.0898 243.75 54.7617L243.777 54.666H246.949L246.922 54.8164C246.803 55.3724 246.585 55.9193 246.266 56.457C245.947 56.9857 245.518 57.4642 244.98 57.8926C244.443 58.321 243.805 58.6628 243.066 58.918C242.328 59.1641 241.49 59.2871 240.551 59.2871ZM262.344 59.3418C260.84 59.3418 259.509 59.1003 258.352 58.6172C257.203 58.1341 256.305 57.4642 255.658 56.6074C255.011 55.7415 254.688 54.748 254.688 53.627V53.5996C254.688 52.7702 254.874 52.0137 255.248 51.3301C255.622 50.6374 256.141 50.0586 256.807 49.5938C257.481 49.1198 258.251 48.7962 259.117 48.623V48.541C258.005 48.2402 257.107 47.7025 256.424 46.9277C255.74 46.153 255.398 45.2415 255.398 44.1934V44.166C255.398 43.1634 255.695 42.2702 256.287 41.4863C256.88 40.6934 257.7 40.069 258.748 39.6133C259.796 39.1576 260.995 38.9297 262.344 38.9297C263.702 38.9297 264.9 39.1576 265.939 39.6133C266.988 40.069 267.808 40.6934 268.4 41.4863C268.993 42.2702 269.289 43.1634 269.289 44.166V44.1934C269.289 45.2415 268.947 46.153 268.264 46.9277C267.589 47.7025 266.691 48.2402 265.57 48.541V48.623C266.445 48.7962 267.215 49.1198 267.881 49.5938C268.546 50.0586 269.066 50.6374 269.439 51.3301C269.813 52.0137 270 52.7702 270 53.5996V53.627C270 54.748 269.676 55.7415 269.029 56.6074C268.382 57.4642 267.48 58.1341 266.322 58.6172C265.174 59.1003 263.848 59.3418 262.344 59.3418ZM262.344 56.6484C263.137 56.6484 263.834 56.5117 264.436 56.2383C265.037 55.9557 265.511 55.5729 265.857 55.0898C266.204 54.5977 266.377 54.0371 266.377 53.4082V53.3809C266.377 52.7428 266.204 52.1823 265.857 51.6992C265.52 51.207 265.046 50.8197 264.436 50.5371C263.834 50.2546 263.137 50.1133 262.344 50.1133C261.551 50.1133 260.849 50.2546 260.238 50.5371C259.637 50.8197 259.163 51.207 258.816 51.6992C258.479 52.1823 258.311 52.7428 258.311 53.3809V53.4082C258.311 54.0371 258.484 54.5977 258.83 55.0898C259.176 55.5729 259.65 55.9557 260.252 56.2383C260.863 56.5117 261.56 56.6484 262.344 56.6484ZM262.344 47.4199C263.027 47.4199 263.629 47.2969 264.148 47.0508C264.668 46.8047 265.074 46.4629 265.365 46.0254C265.657 45.5879 265.803 45.0866 265.803 44.5215V44.4941C265.803 43.9199 265.657 43.4186 265.365 42.9902C265.074 42.5527 264.668 42.2109 264.148 41.9648C263.629 41.7188 263.027 41.5957 262.344 41.5957C261.66 41.5957 261.059 41.7188 260.539 41.9648C260.02 42.2109 259.614 42.5527 259.322 42.9902C259.031 43.4186 258.885 43.9199 258.885 44.4941V44.5215C258.885 45.0866 259.031 45.5879 259.322 46.0254C259.614 46.4629 260.02 46.8047 260.539 47.0508C261.059 47.2969 261.66 47.4199 262.344 47.4199ZM284.574 59.2871C283.125 59.2871 281.876 58.9818 280.828 58.3711C279.789 57.7604 278.992 56.8945 278.436 55.7734C277.88 54.6523 277.602 53.3262 277.602 51.7949V51.7812C277.602 50.2591 277.88 48.9329 278.436 47.8027C279.001 46.6634 279.789 45.7793 280.801 45.1504C281.822 44.5215 283.025 44.207 284.41 44.207C285.786 44.207 286.976 44.5124 287.979 45.123C288.99 45.7246 289.765 46.5723 290.303 47.666C290.85 48.7598 291.123 50.0358 291.123 51.4941V52.5879H279.283V50.3184H289.496L287.855 52.4375V51.125C287.855 50.1771 287.71 49.3887 287.418 48.7598C287.126 48.1309 286.725 47.6615 286.215 47.3516C285.704 47.0326 285.117 46.873 284.451 46.873C283.777 46.873 283.175 47.0371 282.646 47.3652C282.127 47.6842 281.717 48.1628 281.416 48.8008C281.124 49.4388 280.979 50.2135 280.979 51.125V52.4375C280.979 53.3216 281.124 54.0781 281.416 54.707C281.717 55.3268 282.141 55.8053 282.688 56.1426C283.234 56.4707 283.886 56.6348 284.643 56.6348C285.208 56.6348 285.704 56.5482 286.133 56.375C286.561 56.1927 286.912 55.9603 287.186 55.6777C287.468 55.3952 287.664 55.0898 287.773 54.7617L287.801 54.666H290.973L290.945 54.8164C290.827 55.3724 290.608 55.9193 290.289 56.457C289.97 56.9857 289.542 57.4642 289.004 57.8926C288.466 58.321 287.828 58.6628 287.09 58.918C286.352 59.1641 285.513 59.2871 284.574 59.2871ZM292.025 59L296.715 51.7676L292.08 44.5078H295.908L298.82 49.5938H298.889L301.787 44.5078H305.506L300.844 51.6719L305.451 59H301.746L298.725 53.8047H298.656L295.662 59H292.025ZM312.615 59.2871C311.111 59.2871 309.99 58.959 309.252 58.3027C308.523 57.6465 308.158 56.571 308.158 55.0762V47.1328H306.107V44.5078H308.158V40.8301H311.617V44.5078H314.311V47.1328H311.617V54.8027C311.617 55.5046 311.772 55.9922 312.082 56.2656C312.401 56.5299 312.866 56.6621 313.477 56.6621C313.65 56.6621 313.8 56.6576 313.928 56.6484C314.064 56.6302 314.192 56.6165 314.311 56.6074V59.1641C314.11 59.1914 313.864 59.2188 313.572 59.2461C313.29 59.2734 312.971 59.2871 312.615 59.2871ZM316.648 59V44.5078H320.039V47.0098H320.121C320.34 46.1348 320.736 45.4512 321.311 44.959C321.894 44.4577 322.605 44.207 323.443 44.207C323.653 44.207 323.854 44.2207 324.045 44.248C324.236 44.2754 324.396 44.3073 324.523 44.3438V47.4199C324.387 47.3652 324.191 47.3197 323.936 47.2832C323.689 47.2467 323.421 47.2285 323.129 47.2285C322.491 47.2285 321.939 47.3607 321.475 47.625C321.01 47.8802 320.654 48.2585 320.408 48.7598C320.162 49.2611 320.039 49.8717 320.039 50.5918V59H316.648ZM330.225 59.2461C329.268 59.2461 328.42 59.0638 327.682 58.6992C326.952 58.3255 326.383 57.8105 325.973 57.1543C325.572 56.4889 325.371 55.7279 325.371 54.8711V54.8438C325.371 53.5586 325.85 52.5423 326.807 51.7949C327.773 51.0384 329.131 50.61 330.881 50.5098L336.418 50.168V52.4238L331.359 52.7383C330.521 52.793 329.878 52.9935 329.432 53.3398C328.985 53.6862 328.762 54.1465 328.762 54.7207V54.7344C328.762 55.3268 328.985 55.7962 329.432 56.1426C329.887 56.4798 330.489 56.6484 331.236 56.6484C331.893 56.6484 332.476 56.5163 332.986 56.252C333.506 55.9876 333.916 55.6276 334.217 55.1719C334.518 54.7161 334.668 54.2012 334.668 53.627V49.2793C334.668 48.5501 334.436 47.9759 333.971 47.5566C333.515 47.1283 332.854 46.9141 331.988 46.9141C331.186 46.9141 330.544 47.0872 330.061 47.4336C329.577 47.7708 329.277 48.2083 329.158 48.7461L329.131 48.8691H325.986L326 48.7051C326.073 47.8483 326.36 47.0827 326.861 46.4082C327.363 45.7246 328.055 45.1868 328.939 44.7949C329.833 44.403 330.89 44.207 332.111 44.207C333.324 44.207 334.372 44.4076 335.256 44.8086C336.149 45.2096 336.837 45.7702 337.32 46.4902C337.812 47.2103 338.059 48.0579 338.059 49.0332V59H334.668V56.7715H334.586C334.312 57.2728 333.957 57.7103 333.52 58.084C333.082 58.4577 332.581 58.7448 332.016 58.9453C331.46 59.1458 330.863 59.2461 330.225 59.2461ZM352.852 59.2871C351.421 59.2871 350.181 58.9818 349.133 58.3711C348.085 57.7604 347.273 56.89 346.699 55.7598C346.134 54.6296 345.852 53.2897 345.852 51.7402V51.7266C345.852 50.1862 346.139 48.8555 346.713 47.7344C347.287 46.6042 348.094 45.7337 349.133 45.123C350.181 44.5124 351.407 44.207 352.811 44.207C354.087 44.207 355.189 44.4531 356.119 44.9453C357.049 45.4284 357.778 46.071 358.307 46.873C358.835 47.6751 359.136 48.5592 359.209 49.5254V49.6211H356.01L355.982 49.5117C355.846 48.8099 355.513 48.2129 354.984 47.7207C354.465 47.2194 353.754 46.9688 352.852 46.9688C352.141 46.9688 351.516 47.1647 350.979 47.5566C350.45 47.9395 350.04 48.4863 349.748 49.1973C349.456 49.9082 349.311 50.7604 349.311 51.7539V51.7676C349.311 52.7702 349.456 53.627 349.748 54.3379C350.049 55.0488 350.464 55.5957 350.992 55.9785C351.53 56.3522 352.154 56.5391 352.865 56.5391C353.731 56.5391 354.428 56.3066 354.957 55.8418C355.495 55.3678 355.841 54.7526 355.996 53.9961L356.023 53.873H359.236L359.223 53.9688C359.132 54.9714 358.812 55.8737 358.266 56.6758C357.719 57.4779 356.985 58.1159 356.064 58.5898C355.144 59.0547 354.073 59.2871 352.852 59.2871ZM367.686 59.2871C366.264 59.2871 365.029 58.9863 363.98 58.3848C362.932 57.7741 362.117 56.9082 361.533 55.7871C360.959 54.6569 360.672 53.3125 360.672 51.7539V51.7266C360.672 50.1771 360.964 48.8418 361.547 47.7207C362.13 46.5905 362.946 45.7246 363.994 45.123C365.042 44.5124 366.268 44.207 367.672 44.207C369.085 44.207 370.315 44.5124 371.363 45.123C372.421 45.7246 373.241 46.5859 373.824 47.707C374.408 48.8281 374.699 50.168 374.699 51.7266V51.7539C374.699 53.3216 374.408 54.6706 373.824 55.8008C373.25 56.9219 372.439 57.7832 371.391 58.3848C370.342 58.9863 369.107 59.2871 367.686 59.2871ZM367.699 56.5391C368.419 56.5391 369.044 56.3522 369.572 55.9785C370.101 55.6048 370.507 55.0625 370.789 54.3516C371.081 53.6315 371.227 52.7656 371.227 51.7539V51.7266C371.227 50.724 371.081 49.8672 370.789 49.1562C370.497 48.4453 370.083 47.903 369.545 47.5293C369.016 47.1556 368.392 46.9688 367.672 46.9688C366.97 46.9688 366.35 47.1556 365.812 47.5293C365.284 47.903 364.869 48.4453 364.568 49.1562C364.277 49.8672 364.131 50.724 364.131 51.7266V51.7539C364.131 52.7656 364.277 53.6315 364.568 54.3516C364.869 55.0625 365.284 55.6048 365.812 55.9785C366.35 56.3522 366.979 56.5391 367.699 56.5391ZM376.982 59V39.2715H380.387V59H376.982ZM387.564 59.2461C386.607 59.2461 385.76 59.0638 385.021 58.6992C384.292 58.3255 383.723 57.8105 383.312 57.1543C382.911 56.4889 382.711 55.7279 382.711 54.8711V54.8438C382.711 53.5586 383.189 52.5423 384.146 51.7949C385.113 51.0384 386.471 50.61 388.221 50.5098L393.758 50.168V52.4238L388.699 52.7383C387.861 52.793 387.218 52.9935 386.771 53.3398C386.325 53.6862 386.102 54.1465 386.102 54.7207V54.7344C386.102 55.3268 386.325 55.7962 386.771 56.1426C387.227 56.4798 387.829 56.6484 388.576 56.6484C389.232 56.6484 389.816 56.5163 390.326 56.252C390.846 55.9876 391.256 55.6276 391.557 55.1719C391.857 54.7161 392.008 54.2012 392.008 53.627V49.2793C392.008 48.5501 391.775 47.9759 391.311 47.5566C390.855 47.1283 390.194 46.9141 389.328 46.9141C388.526 46.9141 387.883 47.0872 387.4 47.4336C386.917 47.7708 386.617 48.2083 386.498 48.7461L386.471 48.8691H383.326L383.34 48.7051C383.413 47.8483 383.7 47.0827 384.201 46.4082C384.702 45.7246 385.395 45.1868 386.279 44.7949C387.173 44.403 388.23 44.207 389.451 44.207C390.663 44.207 391.712 44.4076 392.596 44.8086C393.489 45.2096 394.177 45.7702 394.66 46.4902C395.152 47.2103 395.398 48.0579 395.398 49.0332V59H392.008V56.7715H391.926C391.652 57.2728 391.297 57.7103 390.859 58.084C390.422 58.4577 389.921 58.7448 389.355 58.9453C388.799 59.1458 388.202 59.2461 387.564 59.2461Z" fill="white"/>
<path d="M103.504 31.4746V21.5762H104.987V22.7451H105.104C105.245 22.4717 105.427 22.2393 105.65 22.0479C105.878 21.8564 106.138 21.7083 106.43 21.6035C106.721 21.4987 107.04 21.4463 107.387 21.4463C108.011 21.4463 108.553 21.6058 109.014 21.9248C109.474 22.2393 109.829 22.6836 110.08 23.2578C110.335 23.8275 110.463 24.502 110.463 25.2812V25.2949C110.463 26.0788 110.338 26.7578 110.087 27.332C109.836 27.9017 109.481 28.3438 109.021 28.6582C108.56 28.9681 108.016 29.123 107.387 29.123C107.045 29.123 106.726 29.0706 106.43 28.9658C106.133 28.8564 105.871 28.7061 105.644 28.5146C105.416 28.3232 105.236 28.0931 105.104 27.8242H104.987V31.4746H103.504ZM106.963 27.8516C107.378 27.8516 107.733 27.749 108.029 27.5439C108.326 27.3389 108.551 27.0449 108.706 26.6621C108.866 26.2793 108.945 25.8236 108.945 25.2949V25.2812C108.945 24.748 108.866 24.29 108.706 23.9072C108.551 23.5244 108.326 23.2305 108.029 23.0254C107.733 22.8203 107.378 22.7178 106.963 22.7178C106.553 22.7178 106.197 22.8226 105.896 23.0322C105.596 23.2373 105.366 23.5312 105.206 23.9141C105.047 24.2923 104.967 24.748 104.967 25.2812V25.2949C104.967 25.819 105.047 26.2725 105.206 26.6553C105.366 27.0381 105.596 27.3343 105.896 27.5439C106.197 27.749 106.553 27.8516 106.963 27.8516ZM114.715 29.1436C114.159 29.1436 113.689 29.0365 113.307 28.8223C112.928 28.6035 112.644 28.2891 112.452 27.8789C112.265 27.4642 112.172 26.9652 112.172 26.3818V21.5762H113.655V26.0332C113.655 26.6439 113.776 27.1019 114.018 27.4072C114.259 27.7126 114.653 27.8652 115.2 27.8652C115.592 27.8652 115.923 27.7878 116.191 27.6328C116.465 27.4733 116.67 27.25 116.807 26.9629C116.943 26.6712 117.012 26.3271 117.012 25.9307V21.5762H118.502V29H117.012V27.8789H116.902C116.725 28.2754 116.451 28.5853 116.082 28.8086C115.713 29.0319 115.257 29.1436 114.715 29.1436ZM123.335 29.1436C122.738 29.1436 122.218 29.057 121.776 28.8838C121.334 28.7061 120.983 28.4622 120.724 28.1523C120.464 27.8379 120.311 27.4733 120.266 27.0586V27.0449H121.756V27.0586C121.852 27.3366 122.034 27.5622 122.303 27.7354C122.572 27.9085 122.927 27.9951 123.369 27.9951C123.674 27.9951 123.941 27.9518 124.169 27.8652C124.401 27.7786 124.584 27.6579 124.716 27.5029C124.848 27.348 124.914 27.1702 124.914 26.9697V26.9561C124.914 26.7236 124.821 26.5277 124.634 26.3682C124.447 26.2087 124.139 26.0788 123.711 25.9785L122.521 25.7051C121.824 25.5456 121.307 25.3018 120.97 24.9736C120.637 24.641 120.471 24.2035 120.471 23.6611V23.6543C120.471 23.2214 120.594 22.8385 120.84 22.5059C121.086 22.1686 121.425 21.9066 121.858 21.7197C122.296 21.5283 122.795 21.4326 123.355 21.4326C123.921 21.4326 124.413 21.5215 124.832 21.6992C125.256 21.8724 125.591 22.1139 125.837 22.4238C126.083 22.7292 126.229 23.0846 126.274 23.4902V23.4971H124.853V23.4834C124.784 23.2236 124.62 23.0072 124.36 22.834C124.105 22.6608 123.768 22.5742 123.349 22.5742C123.08 22.5742 122.84 22.6175 122.631 22.7041C122.421 22.7861 122.255 22.9023 122.132 23.0527C122.013 23.1986 121.954 23.3717 121.954 23.5723V23.5859C121.954 23.8184 122.045 24.0098 122.228 24.1602C122.41 24.3105 122.708 24.4359 123.123 24.5361L124.306 24.8027C125.017 24.9714 125.545 25.2152 125.892 25.5342C126.243 25.8532 126.418 26.2816 126.418 26.8193V26.833C126.418 27.2887 126.284 27.6921 126.015 28.043C125.746 28.3893 125.379 28.6605 124.914 28.8564C124.454 29.0479 123.927 29.1436 123.335 29.1436ZM128.25 29V18.6641H129.733V22.6973H129.85C130.032 22.3008 130.301 21.9909 130.656 21.7676C131.012 21.5443 131.461 21.4326 132.003 21.4326C132.554 21.4326 133.021 21.5397 133.404 21.7539C133.787 21.9681 134.079 22.2826 134.279 22.6973C134.48 23.1074 134.58 23.6064 134.58 24.1943V29H133.09V24.543C133.09 23.9232 132.96 23.4629 132.7 23.1621C132.445 22.8568 132.044 22.7041 131.497 22.7041C131.137 22.7041 130.825 22.7839 130.561 22.9434C130.296 23.0983 130.091 23.3216 129.945 23.6133C129.804 23.9004 129.733 24.2445 129.733 24.6455V29H128.25ZM143.262 29.0479C142.451 29.0479 141.863 28.8929 141.498 28.583C141.138 28.2686 140.958 27.7559 140.958 27.0449V22.7451H139.796V21.5762H140.958V19.7031H142.476V21.5762H144.068V22.7451H142.476V26.6826C142.476 27.0837 142.555 27.373 142.715 27.5508C142.874 27.724 143.139 27.8105 143.508 27.8105C143.617 27.8105 143.711 27.8083 143.788 27.8037C143.87 27.7992 143.964 27.7923 144.068 27.7832V28.9727C143.95 28.9909 143.822 29.0068 143.686 29.0205C143.549 29.0387 143.408 29.0479 143.262 29.0479ZM148.867 29.1436C148.143 29.1436 147.516 28.9886 146.987 28.6787C146.463 28.3688 146.06 27.9268 145.777 27.3525C145.495 26.7738 145.354 26.0879 145.354 25.2949V25.2812C145.354 24.4837 145.495 23.7979 145.777 23.2236C146.064 22.6494 146.47 22.2074 146.994 21.8975C147.523 21.5876 148.147 21.4326 148.867 21.4326C149.592 21.4326 150.216 21.5876 150.74 21.8975C151.264 22.2028 151.668 22.6449 151.95 23.2236C152.237 23.7979 152.381 24.4837 152.381 25.2812V25.2949C152.381 26.0879 152.237 26.7738 151.95 27.3525C151.668 27.9268 151.264 28.3688 150.74 28.6787C150.221 28.9886 149.596 29.1436 148.867 29.1436ZM148.867 27.8994C149.291 27.8994 149.651 27.7969 149.947 27.5918C150.243 27.3822 150.469 27.0837 150.624 26.6963C150.779 26.3089 150.856 25.8418 150.856 25.2949V25.2812C150.856 24.7298 150.779 24.2604 150.624 23.873C150.469 23.4857 150.243 23.1895 149.947 22.9844C149.651 22.7747 149.291 22.6699 148.867 22.6699C148.443 22.6699 148.083 22.7747 147.787 22.9844C147.491 23.1895 147.263 23.4857 147.104 23.873C146.949 24.2604 146.871 24.7298 146.871 25.2812V25.2949C146.871 25.8418 146.949 26.3089 147.104 26.6963C147.263 27.0837 147.491 27.3822 147.787 27.5918C148.083 27.7969 148.443 27.8994 148.867 27.8994ZM155.286 29.1094C155.004 29.1094 154.764 29.0114 154.568 28.8154C154.377 28.6195 154.281 28.3848 154.281 28.1113C154.281 27.8288 154.377 27.5918 154.568 27.4004C154.764 27.209 155.004 27.1133 155.286 27.1133C155.573 27.1133 155.812 27.209 156.004 27.4004C156.195 27.5918 156.291 27.8288 156.291 28.1113C156.291 28.3848 156.195 28.6195 156.004 28.8154C155.812 29.0114 155.573 29.1094 155.286 29.1094ZM155.286 23.9414C155.004 23.9414 154.764 23.8434 154.568 23.6475C154.377 23.4515 154.281 23.2168 154.281 22.9434C154.281 22.6608 154.377 22.4238 154.568 22.2324C154.764 22.041 155.004 21.9453 155.286 21.9453C155.573 21.9453 155.812 22.041 156.004 22.2324C156.195 22.4238 156.291 22.6608 156.291 22.9434C156.291 23.2168 156.195 23.4515 156.004 23.6475C155.812 23.8434 155.573 23.9414 155.286 23.9414ZM165.499 29.1436C164.779 29.1436 164.157 28.9886 163.633 28.6787C163.113 28.3643 162.712 27.9176 162.43 27.3389C162.147 26.7601 162.006 26.0697 162.006 25.2676V25.2539C162.006 24.4655 162.145 23.7865 162.423 23.2168C162.705 22.6471 163.106 22.2074 163.626 21.8975C164.15 21.5876 164.772 21.4326 165.492 21.4326C166.117 21.4326 166.652 21.542 167.099 21.7607C167.55 21.9749 167.908 22.2712 168.172 22.6494C168.441 23.0231 168.609 23.4492 168.678 23.9277L168.685 23.9619H167.256L167.249 23.9482C167.167 23.5837 166.978 23.2806 166.682 23.0391C166.385 22.793 165.991 22.6699 165.499 22.6699C165.089 22.6699 164.736 22.7747 164.439 22.9844C164.143 23.1895 163.915 23.4857 163.756 23.873C163.601 24.2604 163.523 24.7207 163.523 25.2539V25.2676C163.523 25.8145 163.603 26.2839 163.763 26.6758C163.922 27.0677 164.15 27.3708 164.446 27.585C164.743 27.7946 165.093 27.8994 165.499 27.8994C165.964 27.8994 166.34 27.7969 166.627 27.5918C166.919 27.3867 167.124 27.0837 167.242 26.6826L167.256 26.6484L168.678 26.6416L168.664 26.7031C168.577 27.1862 168.402 27.61 168.138 27.9746C167.873 28.3392 167.52 28.6263 167.078 28.8359C166.641 29.041 166.114 29.1436 165.499 29.1436ZM173.504 29.1436C172.779 29.1436 172.153 28.9886 171.624 28.6787C171.1 28.3688 170.697 27.9268 170.414 27.3525C170.132 26.7738 169.99 26.0879 169.99 25.2949V25.2812C169.99 24.4837 170.132 23.7979 170.414 23.2236C170.701 22.6494 171.107 22.2074 171.631 21.8975C172.16 21.5876 172.784 21.4326 173.504 21.4326C174.229 21.4326 174.853 21.5876 175.377 21.8975C175.901 22.2028 176.304 22.6449 176.587 23.2236C176.874 23.7979 177.018 24.4837 177.018 25.2812V25.2949C177.018 26.0879 176.874 26.7738 176.587 27.3525C176.304 27.9268 175.901 28.3688 175.377 28.6787C174.857 28.9886 174.233 29.1436 173.504 29.1436ZM173.504 27.8994C173.928 27.8994 174.288 27.7969 174.584 27.5918C174.88 27.3822 175.106 27.0837 175.261 26.6963C175.416 26.3089 175.493 25.8418 175.493 25.2949V25.2812C175.493 24.7298 175.416 24.2604 175.261 23.873C175.106 23.4857 174.88 23.1895 174.584 22.9844C174.288 22.7747 173.928 22.6699 173.504 22.6699C173.08 22.6699 172.72 22.7747 172.424 22.9844C172.128 23.1895 171.9 23.4857 171.74 23.873C171.585 24.2604 171.508 24.7298 171.508 25.2812V25.2949C171.508 25.8418 171.585 26.3089 171.74 26.6963C171.9 27.0837 172.128 27.3822 172.424 27.5918C172.72 27.7969 173.08 27.8994 173.504 27.8994ZM181.926 29.1436C181.201 29.1436 180.575 28.9886 180.046 28.6787C179.522 28.3688 179.118 27.9268 178.836 27.3525C178.553 26.7738 178.412 26.0879 178.412 25.2949V25.2812C178.412 24.4837 178.553 23.7979 178.836 23.2236C179.123 22.6494 179.529 22.2074 180.053 21.8975C180.581 21.5876 181.206 21.4326 181.926 21.4326C182.65 21.4326 183.275 21.5876 183.799 21.8975C184.323 22.2028 184.726 22.6449 185.009 23.2236C185.296 23.7979 185.439 24.4837 185.439 25.2812V25.2949C185.439 26.0879 185.296 26.7738 185.009 27.3525C184.726 27.9268 184.323 28.3688 183.799 28.6787C183.279 28.9886 182.655 29.1436 181.926 29.1436ZM181.926 27.8994C182.35 27.8994 182.71 27.7969 183.006 27.5918C183.302 27.3822 183.528 27.0837 183.683 26.6963C183.838 26.3089 183.915 25.8418 183.915 25.2949V25.2812C183.915 24.7298 183.838 24.2604 183.683 23.873C183.528 23.4857 183.302 23.1895 183.006 22.9844C182.71 22.7747 182.35 22.6699 181.926 22.6699C181.502 22.6699 181.142 22.7747 180.846 22.9844C180.549 23.1895 180.322 23.4857 180.162 23.873C180.007 24.2604 179.93 24.7298 179.93 25.2812V25.2949C179.93 25.8418 180.007 26.3089 180.162 26.6963C180.322 27.0837 180.549 27.3822 180.846 27.5918C181.142 27.7969 181.502 27.8994 181.926 27.8994ZM187.271 29V18.6641H188.755V29H187.271ZM197.484 29.123C196.865 29.123 196.322 28.9681 195.857 28.6582C195.397 28.3438 195.039 27.8994 194.784 27.3252C194.534 26.751 194.408 26.0742 194.408 25.2949V25.2812C194.408 24.4974 194.534 23.8184 194.784 23.2441C195.035 22.6699 195.39 22.2279 195.851 21.918C196.311 21.6035 196.855 21.4463 197.484 21.4463C197.995 21.4463 198.453 21.5648 198.858 21.8018C199.269 22.0342 199.572 22.3509 199.768 22.752H199.877V18.6641H201.367V29H199.877V27.8311H199.768C199.553 28.2367 199.25 28.5534 198.858 28.7812C198.466 29.0091 198.008 29.123 197.484 29.123ZM197.908 27.8516C198.318 27.8516 198.674 27.749 198.975 27.5439C199.275 27.3389 199.506 27.0449 199.665 26.6621C199.825 26.2747 199.904 25.819 199.904 25.2949V25.2812C199.904 24.7526 199.822 24.2969 199.658 23.9141C199.499 23.5312 199.269 23.2373 198.968 23.0322C198.672 22.8226 198.318 22.7178 197.908 22.7178C197.498 22.7178 197.143 22.8226 196.842 23.0322C196.546 23.2373 196.318 23.5312 196.158 23.9141C196.003 24.2923 195.926 24.748 195.926 25.2812V25.2949C195.926 25.8236 196.003 26.2793 196.158 26.6621C196.318 27.0449 196.546 27.3389 196.842 27.5439C197.143 27.749 197.498 27.8516 197.908 27.8516ZM206.043 29.1436C205.487 29.1436 205.018 29.0365 204.635 28.8223C204.257 28.6035 203.972 28.2891 203.78 27.8789C203.593 27.4642 203.5 26.9652 203.5 26.3818V21.5762H204.983V26.0332C204.983 26.6439 205.104 27.1019 205.346 27.4072C205.587 27.7126 205.981 27.8652 206.528 27.8652C206.92 27.8652 207.251 27.7878 207.52 27.6328C207.793 27.4733 207.998 27.25 208.135 26.9629C208.271 26.6712 208.34 26.3271 208.34 25.9307V21.5762H209.83V29H208.34V27.8789H208.23C208.053 28.2754 207.779 28.5853 207.41 28.8086C207.041 29.0319 206.585 29.1436 206.043 29.1436ZM214.67 29.123C214.05 29.123 213.508 28.9681 213.043 28.6582C212.583 28.3438 212.225 27.8994 211.97 27.3252C211.719 26.751 211.594 26.0742 211.594 25.2949V25.2812C211.594 24.4974 211.719 23.8184 211.97 23.2441C212.22 22.6699 212.576 22.2279 213.036 21.918C213.496 21.6035 214.041 21.4463 214.67 21.4463C215.18 21.4463 215.638 21.5648 216.044 21.8018C216.454 22.0342 216.757 22.3509 216.953 22.752H217.062V18.6641H218.553V29H217.062V27.8311H216.953C216.739 28.2367 216.436 28.5534 216.044 28.7812C215.652 29.0091 215.194 29.123 214.67 29.123ZM215.094 27.8516C215.504 27.8516 215.859 27.749 216.16 27.5439C216.461 27.3389 216.691 27.0449 216.851 26.6621C217.01 26.2747 217.09 25.819 217.09 25.2949V25.2812C217.09 24.7526 217.008 24.2969 216.844 23.9141C216.684 23.5312 216.454 23.2373 216.153 23.0322C215.857 22.8226 215.504 22.7178 215.094 22.7178C214.684 22.7178 214.328 22.8226 214.027 23.0322C213.731 23.2373 213.503 23.5312 213.344 23.9141C213.189 24.2923 213.111 24.748 213.111 25.2812V25.2949C213.111 25.8236 213.189 26.2793 213.344 26.6621C213.503 27.0449 213.731 27.3389 214.027 27.5439C214.328 27.749 214.684 27.8516 215.094 27.8516ZM223.871 29.1436C223.146 29.1436 222.524 28.9886 222.005 28.6787C221.485 28.3643 221.084 27.9199 220.802 27.3457C220.524 26.7715 220.385 26.0924 220.385 25.3086V25.3018C220.385 24.527 220.524 23.8503 220.802 23.2715C221.084 22.6927 221.481 22.2415 221.991 21.918C222.506 21.5944 223.108 21.4326 223.796 21.4326C224.489 21.4326 225.083 21.5876 225.58 21.8975C226.081 22.2074 226.466 22.6426 226.735 23.2031C227.004 23.7591 227.139 24.4108 227.139 25.1582V25.6777H221.137V24.6182H226.4L225.689 25.6025V25.0078C225.689 24.4792 225.607 24.0417 225.443 23.6953C225.284 23.3444 225.063 23.0824 224.78 22.9092C224.498 22.736 224.172 22.6494 223.803 22.6494C223.434 22.6494 223.103 22.7406 222.812 22.9229C222.524 23.1006 222.297 23.3649 222.128 23.7158C221.964 24.0667 221.882 24.4974 221.882 25.0078V25.6025C221.882 26.0902 221.964 26.5072 222.128 26.8535C222.292 27.1999 222.524 27.4642 222.825 27.6465C223.131 27.8288 223.491 27.9199 223.905 27.9199C224.224 27.9199 224.498 27.8766 224.726 27.79C224.958 27.6989 225.147 27.5872 225.293 27.4551C225.443 27.3229 225.546 27.193 225.601 27.0654L225.628 27.0107H227.063L227.05 27.0723C226.986 27.3184 226.874 27.5645 226.715 27.8105C226.555 28.0521 226.343 28.2731 226.079 28.4736C225.819 28.6742 225.505 28.8359 225.136 28.959C224.771 29.082 224.35 29.1436 223.871 29.1436ZM234.754 29.123C234.285 29.123 233.863 29.0342 233.489 28.8564C233.12 28.6742 232.828 28.4167 232.614 28.084C232.4 27.7513 232.293 27.3617 232.293 26.915V26.9014C232.293 26.236 232.532 25.7165 233.011 25.3428C233.494 24.9645 234.177 24.748 235.062 24.6934L237.803 24.5293V25.5752L235.267 25.7393C234.756 25.7712 234.38 25.8805 234.139 26.0674C233.897 26.2497 233.776 26.5072 233.776 26.8398V26.8535C233.776 27.1908 233.906 27.4574 234.166 27.6533C234.426 27.8447 234.754 27.9404 235.15 27.9404C235.52 27.9404 235.848 27.8675 236.135 27.7217C236.426 27.5713 236.654 27.3708 236.818 27.1201C236.982 26.8649 237.064 26.5778 237.064 26.2588V23.9209C237.064 23.5107 236.937 23.1986 236.682 22.9844C236.431 22.7656 236.057 22.6562 235.561 22.6562C235.146 22.6562 234.806 22.7292 234.542 22.875C234.282 23.0208 234.109 23.2259 234.022 23.4902L234.009 23.5107H232.58L232.587 23.4629C232.646 23.0527 232.808 22.6973 233.072 22.3965C233.341 22.0911 233.692 21.8542 234.125 21.6855C234.562 21.5169 235.062 21.4326 235.622 21.4326C236.246 21.4326 236.775 21.5329 237.208 21.7334C237.646 21.9294 237.976 22.2142 238.199 22.5879C238.427 22.957 238.541 23.4014 238.541 23.9209V29H237.064V27.9473H236.955C236.809 28.1979 236.627 28.4121 236.408 28.5898C236.189 28.763 235.941 28.8952 235.663 28.9863C235.385 29.0775 235.082 29.123 234.754 29.123ZM240.633 29V21.5762H242.116V22.7178H242.232C242.396 22.3076 242.652 21.9909 242.998 21.7676C243.349 21.5443 243.768 21.4326 244.256 21.4326C244.593 21.4326 244.896 21.4873 245.165 21.5967C245.434 21.7061 245.664 21.861 245.855 22.0615C246.051 22.2575 246.204 22.4899 246.313 22.7588H246.43C246.553 22.4899 246.726 22.2575 246.949 22.0615C247.173 21.861 247.432 21.7061 247.729 21.5967C248.029 21.4873 248.348 21.4326 248.686 21.4326C249.187 21.4326 249.615 21.5306 249.971 21.7266C250.326 21.918 250.597 22.196 250.784 22.5605C250.971 22.9251 251.064 23.3649 251.064 23.8799V29H249.581V24.2354C249.581 23.7249 249.463 23.3421 249.226 23.0869C248.993 22.8317 248.635 22.7041 248.152 22.7041C247.838 22.7041 247.562 22.777 247.325 22.9229C247.093 23.0641 246.91 23.2555 246.778 23.4971C246.651 23.734 246.587 24.0029 246.587 24.3037V29H245.104V24.085C245.104 23.6611 244.974 23.3262 244.714 23.0801C244.459 22.8294 244.112 22.7041 243.675 22.7041C243.379 22.7041 243.112 22.7816 242.875 22.9365C242.643 23.0915 242.458 23.3011 242.321 23.5654C242.185 23.8252 242.116 24.1169 242.116 24.4404V29H240.633ZM256.287 29.1436C255.562 29.1436 254.936 28.9886 254.407 28.6787C253.883 28.3688 253.48 27.9268 253.197 27.3525C252.915 26.7738 252.773 26.0879 252.773 25.2949V25.2812C252.773 24.4837 252.915 23.7979 253.197 23.2236C253.484 22.6494 253.89 22.2074 254.414 21.8975C254.943 21.5876 255.567 21.4326 256.287 21.4326C257.012 21.4326 257.636 21.5876 258.16 21.8975C258.684 22.2028 259.088 22.6449 259.37 23.2236C259.657 23.7979 259.801 24.4837 259.801 25.2812V25.2949C259.801 26.0879 259.657 26.7738 259.37 27.3525C259.088 27.9268 258.684 28.3688 258.16 28.6787C257.641 28.9886 257.016 29.1436 256.287 29.1436ZM256.287 27.8994C256.711 27.8994 257.071 27.7969 257.367 27.5918C257.663 27.3822 257.889 27.0837 258.044 26.6963C258.199 26.3089 258.276 25.8418 258.276 25.2949V25.2812C258.276 24.7298 258.199 24.2604 258.044 23.873C257.889 23.4857 257.663 23.1895 257.367 22.9844C257.071 22.7747 256.711 22.6699 256.287 22.6699C255.863 22.6699 255.503 22.7747 255.207 22.9844C254.911 23.1895 254.683 23.4857 254.523 23.873C254.368 24.2604 254.291 24.7298 254.291 25.2812V25.2949C254.291 25.8418 254.368 26.3089 254.523 26.6963C254.683 27.0837 254.911 27.3822 255.207 27.5918C255.503 27.7969 255.863 27.8994 256.287 27.8994ZM264.039 29.1436C263.483 29.1436 263.014 29.0365 262.631 28.8223C262.253 28.6035 261.968 28.2891 261.776 27.8789C261.59 27.4642 261.496 26.9652 261.496 26.3818V21.5762H262.979V26.0332C262.979 26.6439 263.1 27.1019 263.342 27.4072C263.583 27.7126 263.978 27.8652 264.524 27.8652C264.916 27.8652 265.247 27.7878 265.516 27.6328C265.789 27.4733 265.994 27.25 266.131 26.9629C266.268 26.6712 266.336 26.3271 266.336 25.9307V21.5762H267.826V29H266.336V27.8789H266.227C266.049 28.2754 265.775 28.5853 265.406 28.8086C265.037 29.0319 264.581 29.1436 264.039 29.1436ZM269.959 29V21.5762H271.442V22.6973H271.559C271.741 22.3008 272.01 21.9909 272.365 21.7676C272.721 21.5443 273.17 21.4326 273.712 21.4326C274.546 21.4326 275.184 21.6719 275.626 22.1504C276.068 22.6289 276.289 23.3102 276.289 24.1943V29H274.799V24.543C274.799 23.9232 274.669 23.4629 274.409 23.1621C274.154 22.8568 273.753 22.7041 273.206 22.7041C272.846 22.7041 272.534 22.7839 272.27 22.9434C272.005 23.0983 271.8 23.3216 271.654 23.6133C271.513 23.9004 271.442 24.2445 271.442 24.6455V29H269.959ZM281.156 29.0479C280.345 29.0479 279.757 28.8929 279.393 28.583C279.033 28.2686 278.853 27.7559 278.853 27.0449V22.7451H277.69V21.5762H278.853V19.7031H280.37V21.5762H281.963V22.7451H280.37V26.6826C280.37 27.0837 280.45 27.373 280.609 27.5508C280.769 27.724 281.033 27.8105 281.402 27.8105C281.512 27.8105 281.605 27.8083 281.683 27.8037C281.765 27.7992 281.858 27.7923 281.963 27.7832V28.9727C281.844 28.9909 281.717 29.0068 281.58 29.0205C281.443 29.0387 281.302 29.0479 281.156 29.0479ZM287.261 25.7051V24.3447H294.664V25.7051H287.261ZM290.282 28.7402V21.3096H291.643V28.7402H290.282ZM303.168 29.0479C302.357 29.0479 301.769 28.8929 301.404 28.583C301.044 28.2686 300.864 27.7559 300.864 27.0449V22.7451H299.702V21.5762H300.864V19.7031H302.382V21.5762H303.975V22.7451H302.382V26.6826C302.382 27.0837 302.462 27.373 302.621 27.5508C302.781 27.724 303.045 27.8105 303.414 27.8105C303.523 27.8105 303.617 27.8083 303.694 27.8037C303.776 27.7992 303.87 27.7923 303.975 27.7832V28.9727C303.856 28.9909 303.729 29.0068 303.592 29.0205C303.455 29.0387 303.314 29.0479 303.168 29.0479ZM305.731 29V21.5762H307.222V29H305.731ZM306.483 20.25C306.228 20.25 306.009 20.1589 305.827 19.9766C305.645 19.7943 305.554 19.5755 305.554 19.3203C305.554 19.0651 305.645 18.8486 305.827 18.6709C306.009 18.4886 306.228 18.3975 306.483 18.3975C306.739 18.3975 306.957 18.4886 307.14 18.6709C307.322 18.8486 307.413 19.0651 307.413 19.3203C307.413 19.5755 307.322 19.7943 307.14 19.9766C306.957 20.1589 306.739 20.25 306.483 20.25ZM312.178 29.0479C311.367 29.0479 310.779 28.8929 310.414 28.583C310.054 28.2686 309.874 27.7559 309.874 27.0449V22.7451H308.712V21.5762H309.874V19.7031H311.392V21.5762H312.984V22.7451H311.392V26.6826C311.392 27.0837 311.471 27.373 311.631 27.5508C311.79 27.724 312.055 27.8105 312.424 27.8105C312.533 27.8105 312.627 27.8083 312.704 27.8037C312.786 27.7992 312.88 27.7923 312.984 27.7832V28.9727C312.866 28.9909 312.738 29.0068 312.602 29.0205C312.465 29.0387 312.324 29.0479 312.178 29.0479ZM314.789 29V18.6641H316.272V29H314.789ZM321.598 29.1436C320.873 29.1436 320.251 28.9886 319.731 28.6787C319.212 28.3643 318.811 27.9199 318.528 27.3457C318.25 26.7715 318.111 26.0924 318.111 25.3086V25.3018C318.111 24.527 318.25 23.8503 318.528 23.2715C318.811 22.6927 319.207 22.2415 319.718 21.918C320.233 21.5944 320.834 21.4326 321.522 21.4326C322.215 21.4326 322.81 21.5876 323.307 21.8975C323.808 22.2074 324.193 22.6426 324.462 23.2031C324.731 23.7591 324.865 24.4108 324.865 25.1582V25.6777H318.863V24.6182H324.127L323.416 25.6025V25.0078C323.416 24.4792 323.334 24.0417 323.17 23.6953C323.01 23.3444 322.789 23.0824 322.507 22.9092C322.224 22.736 321.898 22.6494 321.529 22.6494C321.16 22.6494 320.83 22.7406 320.538 22.9229C320.251 23.1006 320.023 23.3649 319.854 23.7158C319.69 24.0667 319.608 24.4974 319.608 25.0078V25.6025C319.608 26.0902 319.69 26.5072 319.854 26.8535C320.019 27.1999 320.251 27.4642 320.552 27.6465C320.857 27.8288 321.217 27.9199 321.632 27.9199C321.951 27.9199 322.224 27.8766 322.452 27.79C322.685 27.6989 322.874 27.5872 323.02 27.4551C323.17 27.3229 323.272 27.193 323.327 27.0654L323.354 27.0107H324.79L324.776 27.0723C324.713 27.3184 324.601 27.5645 324.441 27.8105C324.282 28.0521 324.07 28.2731 323.806 28.4736C323.546 28.6742 323.231 28.8359 322.862 28.959C322.498 29.082 322.076 29.1436 321.598 29.1436Z" fill="#868686"/>
</svg>
