<svg width="239" height="82" viewBox="0 0 239 82" fill="none" xmlns="http://www.w3.org/2000/svg">
<path d="M239 36C239 16.1177 222.882 0 203 0H36C16.1178 0 0 16.1177 0 36V46C0 65.8822 16.1178 82 36 82H227C233.627 82 239 76.6274 239 70V36Z" fill="#2C2C2C"/>
<path d="M33.4219 55.7852V36.5078H36.8125V39.0098H36.8945C37.1771 38.4264 37.5326 37.9297 37.9609 37.5195C38.3984 37.1003 38.9043 36.7767 39.4785 36.5488C40.0618 36.321 40.6953 36.207 41.3789 36.207C42.6094 36.207 43.6712 36.5124 44.5645 37.123C45.4668 37.7246 46.1595 38.5905 46.6426 39.7207C47.1348 40.8509 47.3809 42.1953 47.3809 43.7539V43.7676C47.3809 45.3171 47.1348 46.6569 46.6426 47.7871C46.1595 48.9082 45.4714 49.7741 44.5781 50.3848C43.694 50.9863 42.6458 51.2871 41.4336 51.2871C40.75 51.2871 40.112 51.1777 39.5195 50.959C38.9362 50.7402 38.4212 50.4258 37.9746 50.0156C37.528 49.6055 37.168 49.1178 36.8945 48.5527H36.8125V55.7852H33.4219ZM40.3809 48.4297C41.11 48.4297 41.7389 48.2383 42.2676 47.8555C42.7962 47.4727 43.2018 46.9349 43.4844 46.2422C43.776 45.5404 43.9219 44.7155 43.9219 43.7676V43.7539C43.9219 42.7786 43.776 41.9447 43.4844 41.252C43.2018 40.5501 42.7917 40.0124 42.2539 39.6387C41.7253 39.265 41.1009 39.0781 40.3809 39.0781C39.679 39.0781 39.0592 39.2695 38.5215 39.6523C37.9837 40.0352 37.5599 40.5775 37.25 41.2793C36.9492 41.972 36.7988 42.7969 36.7988 43.7539V43.7676C36.7988 44.7155 36.9492 45.5404 37.25 46.2422C37.5599 46.9349 37.9837 47.4727 38.5215 47.8555C39.0592 48.2383 39.679 48.4297 40.3809 48.4297ZM49.6777 51V36.5078H53.082V51H49.6777ZM51.373 34.4297C50.8444 34.4297 50.3978 34.2474 50.0332 33.8828C49.6686 33.5182 49.4863 33.0807 49.4863 32.5703C49.4863 32.0508 49.6686 31.6133 50.0332 31.2578C50.3978 30.8932 50.8444 30.7109 51.373 30.7109C51.9108 30.7109 52.362 30.8932 52.7266 31.2578C53.0911 31.6133 53.2734 32.0508 53.2734 32.5703C53.2734 33.0807 53.0911 33.5182 52.7266 33.8828C52.362 34.2474 51.9108 34.4297 51.373 34.4297ZM62.3789 51.2871C60.9479 51.2871 59.7083 50.9818 58.6602 50.3711C57.612 49.7604 56.8008 48.89 56.2266 47.7598C55.6615 46.6296 55.3789 45.2897 55.3789 43.7402V43.7266C55.3789 42.1862 55.666 40.8555 56.2402 39.7344C56.8145 38.6042 57.6211 37.7337 58.6602 37.123C59.7083 36.5124 60.9342 36.207 62.3379 36.207C63.6139 36.207 64.7168 36.4531 65.6465 36.9453C66.5762 37.4284 67.3053 38.071 67.834 38.873C68.3626 39.6751 68.6634 40.5592 68.7363 41.5254V41.6211H65.5371L65.5098 41.5117C65.373 40.8099 65.0404 40.2129 64.5117 39.7207C63.9922 39.2194 63.2812 38.9688 62.3789 38.9688C61.668 38.9688 61.0436 39.1647 60.5059 39.5566C59.9772 39.9395 59.5671 40.4863 59.2754 41.1973C58.9837 41.9082 58.8379 42.7604 58.8379 43.7539V43.7676C58.8379 44.7702 58.9837 45.627 59.2754 46.3379C59.5762 47.0488 59.9909 47.5957 60.5195 47.9785C61.0573 48.3522 61.6816 48.5391 62.3926 48.5391C63.2585 48.5391 63.9557 48.3066 64.4844 47.8418C65.0221 47.3678 65.3685 46.7526 65.5234 45.9961L65.5508 45.873H68.7637L68.75 45.9688C68.6589 46.9714 68.3398 47.8737 67.793 48.6758C67.2461 49.4779 66.5124 50.1159 65.5918 50.5898C64.6712 51.0547 63.6003 51.2871 62.3789 51.2871ZM70.9512 51V31.2715H74.3418V51H70.9512ZM80.084 51L75.2305 44.4102L77.4043 41.8945L84.0078 51H80.084ZM73.8496 46.4883V42.5234H74.4238L79.8379 36.5078H83.7617L77.0078 43.8496H76.3789L73.8496 46.4883Z" fill="#868686"/>
<path d="M97.8027 31.2715L92.6348 55.7852H89.5586L94.7266 31.2715H97.8027ZM105.5 51.2871C104.069 51.2871 102.829 50.9818 101.781 50.3711C100.733 49.7604 99.9219 48.89 99.3477 47.7598C98.7826 46.6296 98.5 45.2897 98.5 43.7402V43.7266C98.5 42.1862 98.7871 40.8555 99.3613 39.7344C99.9355 38.6042 100.742 37.7337 101.781 37.123C102.829 36.5124 104.055 36.207 105.459 36.207C106.735 36.207 107.838 36.4531 108.768 36.9453C109.697 37.4284 110.426 38.071 110.955 38.873C111.484 39.6751 111.785 40.5592 111.857 41.5254V41.6211H108.658L108.631 41.5117C108.494 40.8099 108.161 40.2129 107.633 39.7207C107.113 39.2194 106.402 38.9688 105.5 38.9688C104.789 38.9688 104.165 39.1647 103.627 39.5566C103.098 39.9395 102.688 40.4863 102.396 41.1973C102.105 41.9082 101.959 42.7604 101.959 43.7539V43.7676C101.959 44.7702 102.105 45.627 102.396 46.3379C102.697 47.0488 103.112 47.5957 103.641 47.9785C104.178 48.3522 104.803 48.5391 105.514 48.5391C106.38 48.5391 107.077 48.3066 107.605 47.8418C108.143 47.3678 108.49 46.7526 108.645 45.9961L108.672 45.873H111.885L111.871 45.9688C111.78 46.9714 111.461 47.8737 110.914 48.6758C110.367 49.4779 109.633 50.1159 108.713 50.5898C107.792 51.0547 106.721 51.2871 105.5 51.2871ZM118.857 51.2871C117.791 51.2871 116.884 51.0729 116.137 50.6445C115.398 50.207 114.833 49.5827 114.441 48.7715C114.049 47.9603 113.854 46.9987 113.854 45.8867V36.5078H117.244V45.2031C117.244 46.2331 117.486 47.0306 117.969 47.5957C118.452 48.1517 119.181 48.4297 120.156 48.4297C120.803 48.4297 121.364 48.2839 121.838 47.9922C122.321 47.6914 122.695 47.2767 122.959 46.748C123.223 46.2194 123.355 45.6042 123.355 44.9023V36.5078H126.76V51H123.355V48.7305H123.287C122.913 49.5052 122.357 50.125 121.619 50.5898C120.881 51.0547 119.96 51.2871 118.857 51.2871ZM129.562 51V36.5078H132.953V39.0098H133.035C133.254 38.1348 133.65 37.4512 134.225 36.959C134.808 36.4577 135.519 36.207 136.357 36.207C136.567 36.207 136.768 36.2207 136.959 36.248C137.15 36.2754 137.31 36.3073 137.438 36.3438V39.4199C137.301 39.3652 137.105 39.3197 136.85 39.2832C136.604 39.2467 136.335 39.2285 136.043 39.2285C135.405 39.2285 134.854 39.3607 134.389 39.625C133.924 39.8802 133.568 40.2585 133.322 40.7598C133.076 41.2611 132.953 41.8717 132.953 42.5918V51H129.562ZM139.188 51V36.5078H142.578V39.0098H142.66C142.879 38.1348 143.275 37.4512 143.85 36.959C144.433 36.4577 145.144 36.207 145.982 36.207C146.192 36.207 146.393 36.2207 146.584 36.248C146.775 36.2754 146.935 36.3073 147.062 36.3438V39.4199C146.926 39.3652 146.73 39.3197 146.475 39.2832C146.229 39.2467 145.96 39.2285 145.668 39.2285C145.03 39.2285 144.479 39.3607 144.014 39.625C143.549 39.8802 143.193 40.2585 142.947 40.7598C142.701 41.2611 142.578 41.8717 142.578 42.5918V51H139.188ZM154.637 51.2871C153.188 51.2871 151.939 50.9818 150.891 50.3711C149.852 49.7604 149.054 48.8945 148.498 47.7734C147.942 46.6523 147.664 45.3262 147.664 43.7949V43.7812C147.664 42.2591 147.942 40.9329 148.498 39.8027C149.063 38.6634 149.852 37.7793 150.863 37.1504C151.884 36.5215 153.087 36.207 154.473 36.207C155.849 36.207 157.038 36.5124 158.041 37.123C159.053 37.7246 159.827 38.5723 160.365 39.666C160.912 40.7598 161.186 42.0358 161.186 43.4941V44.5879H149.346V42.3184H159.559L157.918 44.4375V43.125C157.918 42.1771 157.772 41.3887 157.48 40.7598C157.189 40.1309 156.788 39.6615 156.277 39.3516C155.767 39.0326 155.179 38.873 154.514 38.873C153.839 38.873 153.238 39.0371 152.709 39.3652C152.189 39.6842 151.779 40.1628 151.479 40.8008C151.187 41.4388 151.041 42.2135 151.041 43.125V44.4375C151.041 45.3216 151.187 46.0781 151.479 46.707C151.779 47.3268 152.203 47.8053 152.75 48.1426C153.297 48.4707 153.949 48.6348 154.705 48.6348C155.27 48.6348 155.767 48.5482 156.195 48.375C156.624 48.1927 156.975 47.9603 157.248 47.6777C157.531 47.3952 157.727 47.0898 157.836 46.7617L157.863 46.666H161.035L161.008 46.8164C160.889 47.3724 160.671 47.9193 160.352 48.457C160.033 48.9857 159.604 49.4642 159.066 49.8926C158.529 50.321 157.891 50.6628 157.152 50.918C156.414 51.1641 155.576 51.2871 154.637 51.2871ZM163.359 51V36.5078H166.75V38.7773H166.832C167.206 37.9935 167.762 37.3691 168.5 36.9043C169.247 36.4395 170.168 36.207 171.262 36.207C172.857 36.207 174.087 36.6901 174.953 37.6562C175.828 38.6224 176.266 39.944 176.266 41.6211V51H172.861V42.3047C172.861 41.2747 172.62 40.4818 172.137 39.9258C171.654 39.3607 170.929 39.0781 169.963 39.0781C169.316 39.0781 168.751 39.2285 168.268 39.5293C167.785 39.821 167.411 40.2311 167.146 40.7598C166.882 41.2793 166.75 41.89 166.75 42.5918V51H163.359ZM185.398 51.2871C183.967 51.2871 182.728 50.9818 181.68 50.3711C180.632 49.7604 179.82 48.89 179.246 47.7598C178.681 46.6296 178.398 45.2897 178.398 43.7402V43.7266C178.398 42.1862 178.686 40.8555 179.26 39.7344C179.834 38.6042 180.641 37.7337 181.68 37.123C182.728 36.5124 183.954 36.207 185.357 36.207C186.633 36.207 187.736 36.4531 188.666 36.9453C189.596 37.4284 190.325 38.071 190.854 38.873C191.382 39.6751 191.683 40.5592 191.756 41.5254V41.6211H188.557L188.529 41.5117C188.393 40.8099 188.06 40.2129 187.531 39.7207C187.012 39.2194 186.301 38.9688 185.398 38.9688C184.688 38.9688 184.063 39.1647 183.525 39.5566C182.997 39.9395 182.587 40.4863 182.295 41.1973C182.003 41.9082 181.857 42.7604 181.857 43.7539V43.7676C181.857 44.7702 182.003 45.627 182.295 46.3379C182.596 47.0488 183.01 47.5957 183.539 47.9785C184.077 48.3522 184.701 48.5391 185.412 48.5391C186.278 48.5391 186.975 48.3066 187.504 47.8418C188.042 47.3678 188.388 46.7526 188.543 45.9961L188.57 45.873H191.783L191.77 45.9688C191.678 46.9714 191.359 47.8737 190.812 48.6758C190.266 49.4779 189.532 50.1159 188.611 50.5898C187.691 51.0547 186.62 51.2871 185.398 51.2871ZM195.762 55.8125C195.434 55.8125 195.11 55.7943 194.791 55.7578C194.481 55.7305 194.221 55.6986 194.012 55.6621V53.0781C194.139 53.0964 194.299 53.1191 194.49 53.1465C194.682 53.1738 194.9 53.1875 195.146 53.1875C195.803 53.1875 196.322 53.0736 196.705 52.8457C197.088 52.627 197.389 52.2122 197.607 51.6016L197.812 51.0137L192.604 36.5078H196.309L199.918 48.8125L199.398 48.1016H200.123L199.604 48.8125L203.213 36.5078H206.795L201.572 51.4922C201.208 52.5495 200.766 53.3926 200.246 54.0215C199.727 54.6595 199.098 55.1152 198.359 55.3887C197.63 55.6712 196.764 55.8125 195.762 55.8125Z" fill="white"/>
</svg>
