<svg width="32" height="32" viewBox="0 0 43 44" fill="none" xmlns="http://www.w3.org/2000/svg">
<path d="M19.4697 1.75251C20.3475 0.147598 22.6525 0.147601 23.5303 1.75251L29.6631 12.9659C29.8754 13.3542 30.1947 13.6734 30.5829 13.8858L41.7963 20.0186C43.4012 20.8963 43.4012 23.2013 41.7963 24.0791L30.5829 30.2119C30.1947 30.4242 29.8754 30.7435 29.6631 31.1318L23.5303 42.3451C22.6525 43.9501 20.3475 43.9501 19.4697 42.3451L13.3369 31.1318C13.1246 30.7435 12.8053 30.4242 12.4171 30.2119L1.20368 24.0791C-0.40123 23.2013 -0.401227 20.8963 1.20369 20.0186L12.4171 13.8858C12.8053 13.6734 13.1246 13.3542 13.3369 12.9659L19.4697 1.75251Z" fill="#FF32F7"/>
</svg>
