<svg width="460" height="240" viewBox="0 0 460 240" fill="none" xmlns="http://www.w3.org/2000/svg">
<g clip-path="url(#clip0_719_13448)">
<path d="M424 0H36C16.1177 0 0 16.1177 0 36V204C0 223.882 16.1177 240 36 240H424C443.882 240 460 223.882 460 204V36C460 16.1177 443.882 0 424 0Z" fill="#FFD232"/>
<path d="M103.241 64.8048C107 61.5421 112.88 63.7247 113.599 68.6497L118.625 103.061C118.799 104.252 119.311 105.369 120.101 106.278L142.897 132.54C146.16 136.298 143.977 142.178 139.052 142.898L104.642 147.924C103.45 148.098 102.333 148.61 101.424 149.399L75.1623 172.196C71.4036 175.458 65.5238 173.276 64.8045 168.351L59.7785 133.94C59.6045 132.748 59.0924 131.632 58.3031 130.722L35.5065 104.461C32.2438 100.702 34.4264 94.8221 39.3514 94.1028L73.7622 89.0768C74.9537 88.9028 76.0703 88.3907 76.9797 87.6014L103.241 64.8048Z" fill="#FF32F7"/>
<path d="M185.206 42.8063C191.194 36.4616 201.867 40.2905 202.456 48.9946L209.21 148.807C209.7 156.047 202.556 161.382 195.753 158.857L120.993 131.105C114.278 128.613 112.284 120.076 117.2 114.867L185.206 42.8063Z" fill="#FF3232"/>
<path fill-rule="evenodd" clip-rule="evenodd" d="M169.894 117.892C158.739 113.751 146.34 119.437 142.199 130.592C138.059 141.746 143.745 154.145 154.899 158.286C166.054 162.427 178.453 156.741 182.594 145.586C178.453 156.741 184.139 169.14 195.294 173.281C206.448 177.421 218.847 171.736 222.988 160.581C227.129 149.426 221.443 137.027 210.288 132.886C221.443 137.027 233.842 131.341 237.983 120.187C242.123 109.032 236.438 96.6327 225.283 92.4921C214.128 88.3514 201.729 94.0374 197.588 105.192C201.729 94.0374 196.043 81.6381 184.889 77.4974C173.734 73.3568 161.335 79.0427 157.194 90.1973C153.053 101.352 158.739 113.751 169.894 117.892ZM169.894 117.892C181.048 122.032 193.448 116.346 197.588 105.192C193.448 116.346 199.134 128.746 210.288 132.886C199.134 128.746 186.734 134.432 182.594 145.586C186.734 134.432 181.048 122.032 169.894 117.892Z" fill="black"/>
<path fill-rule="evenodd" clip-rule="evenodd" d="M146.223 190.299C170.353 181.509 182.789 154.822 173.999 130.692C165.21 106.562 138.523 94.1256 114.393 102.915C90.2626 111.705 77.8265 138.392 86.6161 162.522C95.4056 186.652 122.092 199.088 146.223 190.299ZM138.265 168.453C150.33 164.058 156.548 150.715 152.154 138.649C147.759 126.584 134.415 120.366 122.35 124.761C110.285 129.156 104.067 142.499 108.462 154.564C112.857 166.629 126.2 172.848 138.265 168.453Z" fill="#32DAFF"/>
<path d="M375.536 28.86L275.705 61.3985C272.554 62.4254 270.832 65.8119 271.859 68.9624L311.835 191.612C312.862 194.763 316.249 196.484 319.399 195.457L419.23 162.919C422.381 161.892 424.102 158.506 423.076 155.355L383.1 32.7053C382.073 29.5547 378.686 27.8331 375.536 28.86Z" fill="white"/>
<path d="M303.172 68.2226L288.91 72.871C287.335 73.3844 286.474 75.0777 286.988 76.653C287.501 78.2283 289.194 79.0891 290.77 78.5756L305.031 73.9273C306.607 73.4138 307.467 71.7206 306.954 70.1453C306.44 68.57 304.747 67.7092 303.172 68.2226Z" fill="#B4B4B4"/>
<path d="M322.082 77.8359L293.558 87.1326C291.983 87.6461 291.122 89.3393 291.636 90.9146C292.149 92.4899 293.842 93.3507 295.418 92.8373L323.941 83.5406C325.516 83.0271 326.377 81.3339 325.864 79.7586C325.35 78.1833 323.657 77.3225 322.082 77.8359Z" fill="#B4B4B4"/>
<path d="M316.746 95.3515L298.206 101.394C296.631 101.908 295.77 103.601 296.284 105.176C296.797 106.752 298.49 107.612 300.066 107.099L318.606 101.056C320.181 100.543 321.042 98.8494 320.528 97.2741C320.015 95.6988 318.322 94.838 316.746 95.3515Z" fill="#B4B4B4"/>
<path d="M338.509 104.035L302.855 115.656C301.28 116.17 300.419 117.863 300.933 119.438C301.446 121.014 303.139 121.874 304.715 121.361L340.369 109.74C341.944 109.227 342.805 107.533 342.291 105.958C341.778 104.383 340.085 103.522 338.509 104.035Z" fill="#B4B4B4"/>
<path d="M346.01 117.367L307.503 129.917C305.928 130.431 305.067 132.124 305.581 133.699C306.094 135.275 307.787 136.135 309.363 135.622L347.869 123.071C349.444 122.558 350.305 120.865 349.792 119.289C349.278 117.714 347.585 116.853 346.01 117.367Z" fill="#B4B4B4"/>
<path d="M356.362 129.768L312.151 144.178C310.576 144.692 309.715 146.385 310.229 147.96C310.742 149.536 312.435 150.396 314.011 149.883L358.222 135.473C359.797 134.96 360.658 133.266 360.144 131.691C359.631 130.116 357.938 129.255 356.362 129.768Z" fill="#B4B4B4"/>
<path d="M366.124 159.718L321.913 174.128C320.338 174.642 319.477 176.335 319.991 177.91C320.504 179.486 322.197 180.346 323.773 179.833L367.984 165.423C369.559 164.91 370.42 163.216 369.906 161.641C369.393 160.066 367.7 159.205 366.124 159.718Z" fill="#B4B4B4"/>
<path d="M371.627 45.9102L369.487 46.6074C367.912 47.1209 367.051 48.8141 367.565 50.3894C368.078 51.9647 369.771 52.8255 371.347 52.3121L373.486 51.6148C375.061 51.1014 375.922 49.4081 375.409 47.8328C374.895 46.2575 373.202 45.3967 371.627 45.9102Z" fill="#B4B4B4"/>
<path d="M376.275 60.1721L374.136 60.8694C372.561 61.3828 371.7 63.0761 372.214 64.6514C372.727 66.2267 374.42 67.0875 375.996 66.574L378.135 65.8768C379.71 65.3633 380.571 63.6701 380.057 62.0948C379.544 60.5195 377.851 59.6587 376.275 60.1721Z" fill="#B4B4B4"/>
<path d="M380.924 74.4337L378.784 75.131C377.209 75.6444 376.348 77.3377 376.862 78.913C377.375 80.4883 379.068 81.3491 380.644 80.8356L382.783 80.1384C384.358 79.6249 385.219 77.9317 384.706 76.3564C384.192 74.7811 382.499 73.9203 380.924 74.4337Z" fill="#B4B4B4"/>
<path d="M385.573 88.6954L383.433 89.3927C381.858 89.9061 380.997 91.5994 381.511 93.1746C382.024 94.7499 383.717 95.6107 385.293 95.0973L387.432 94.4C389.007 93.8866 389.868 92.1933 389.355 90.6181C388.841 89.0428 387.148 88.182 385.573 88.6954Z" fill="#B4B4B4"/>
<path d="M390.221 102.957L388.081 103.654C386.506 104.168 385.645 105.861 386.159 107.436C386.672 109.012 388.365 109.872 389.941 109.359L392.08 108.662C393.655 108.148 394.516 106.455 394.003 104.88C393.489 103.304 391.796 102.444 390.221 102.957Z" fill="#B4B4B4"/>
<path d="M394.869 117.219L392.729 117.916C391.154 118.43 390.293 120.123 390.807 121.698C391.32 123.274 393.013 124.134 394.589 123.621L396.728 122.924C398.303 122.41 399.164 120.717 398.65 119.142C398.137 117.566 396.444 116.706 394.869 117.219Z" fill="#B4B4B4"/>
</g>
<defs>
<clipPath id="clip0_719_13448">
<rect width="460" height="240" fill="white"/>
</clipPath>
</defs>
</svg>
